<svg width="15" height="18" fill="none" xmlns="http://www.w3.org/2000/svg"><mask id="a" style="mask-type:luminance" maskUnits="userSpaceOnUse" x="0" y="0" width="15" height="18"><path fill="#fff" d="M.75 0h13.5v18H.75z"/></mask><g mask="url(#a)"><path fill-rule="evenodd" clip-rule="evenodd" d="M11.954 9.446c-.007-1.29.577-2.264 1.758-2.98-.66-.946-1.66-1.467-2.978-1.569-1.248-.098-2.612.728-3.111.728-.527 0-1.737-.693-2.686-.693C2.975 4.964.891 6.497.891 9.615c0 .921.168 1.873.506 2.855.45 1.29 2.074 4.454 3.769 4.402.886-.022 1.511-.63 2.664-.63 1.118 0 1.699.63 2.686.63 1.709-.025 3.178-2.9 3.607-4.195-2.292-1.079-2.169-3.164-2.169-3.23zm-1.99-5.772c.96-1.14.872-2.176.844-2.549-.847.05-1.828.577-2.387 1.227-.615.696-.977 1.557-.9 2.528.918.07 1.754-.401 2.443-1.206z" fill="#000"/></g></svg>