<svg width="18" height="18" fill="none" xmlns="http://www.w3.org/2000/svg"><path d="M2.437 9c0 .28.124.54.242.735.127.21.297.428.485.64.376.425.866.882 1.342 1.295a33.204 33.204 0 001.865 1.5l.033.024.008.007.003.002a.563.563 0 00.668-.905l-.01-.008-.03-.022c-.026-.02-.065-.05-.116-.087a33.633 33.633 0 01-1.684-1.36 13.759 13.759 0 01-1.296-1.26h11.052a.562.562 0 100-1.125H3.95l.058-.067c.327-.37.774-.79 1.236-1.19a32.093 32.093 0 011.8-1.447l.03-.023.01-.007a.562.562 0 10-.668-.905l-.003.002-.008.006-.033.025a24.238 24.238 0 00-.554.423c-.356.278-.833.66-1.311 1.076-.476.413-.966.87-1.342 1.296a4.48 4.48 0 00-.485.64c-.117.194-.24.452-.242.73" fill="#fff"/></svg>