<svg width="11" height="11" fill="none" xmlns="http://www.w3.org/2000/svg"><path d="M1.49 5.5c0-.171.076-.33.148-.45.077-.128.181-.26.296-.39.23-.26.53-.54.82-.792a20.3 20.3 0 011.14-.916l.02-.015.005-.004.002-.001a.344.344 0 01.408.553l-.006.004-.018.014a13.533 13.533 0 00-.326.25c-.212.165-.494.39-.774.634a8.404 8.404 0 00-.793.77h6.755a.344.344 0 010 .688H2.414l.035.04c.2.227.474.483.756.728a19.604 19.604 0 001.1.884l.018.014.006.004a.344.344 0 11-.408.554l-.002-.002-.005-.004-.02-.014a15.236 15.236 0 01-.338-.26 20.3 20.3 0 01-.802-.657 9.062 9.062 0 01-.82-.791 2.782 2.782 0 01-.296-.392.9.9 0 01-.148-.446" fill="#1B8354"/></svg>