<svg width="24" height="24" fill="none" xmlns="http://www.w3.org/2000/svg"><path d="M18.038 6.002c.229.246.356.571.435.848.085.296.143.633.184.981.082.698.102 1.515.095 2.28a41.278 41.278 0 01-.131 2.887l-.004.049-.001.013v.005a.75.75 0 11-1.495-.13v-.003l.001-.011.004-.045a27.016 27.016 0 00.056-.803c.031-.528.064-1.238.07-1.974.007-.74-.014-1.487-.085-2.094a8.118 8.118 0 00-.012-.1L6.53 18.53a.75.75 0 11-1.06-1.06L16.096 6.842a8.61 8.61 0 00-.044-.005c-.6-.07-1.35-.091-2.1-.086a41.926 41.926 0 00-2.83.123l-.047.004h-.014a.75.75 0 11-.124-1.494h.005l.013-.001.05-.004a30.578 30.578 0 01.854-.057 43.45 43.45 0 012.081-.07c.774-.006 1.596.014 2.287.095.344.04.679.098.968.184.263.078.601.211.842.47z" fill="#1F2A37"/></svg>