<svg width="24" height="24" fill="none" xmlns="http://www.w3.org/2000/svg"><path fill-rule="evenodd" clip-rule="evenodd" d="M11.998 1.25c.797 0 1.373.6 1.71 1.284l1.059 2.134.008.013.027.034a.645.645 0 00.262.175l.004.001 1.914.32c.744.126 1.458.507 1.695 1.25.237.743-.123 1.468-.658 2.003v.001l-1.487 1.499a.491.491 0 00-.09.188.517.517 0 00-.022.215l.425 1.853c.182.797.158 1.733-.541 2.246-.702.516-1.602.253-2.302-.164l-1.252-.747v3.695h.3c.664 0 1.237 0 1.696.062.492.066.963.215 1.345.597s.531.854.597 1.345c.062.459.062 1.032.062 1.697v.299H18a.75.75 0 010 1.5H6a.75.75 0 010-1.5h1.25v-.3c0-.664 0-1.237.062-1.696.066-.492.215-.963.597-1.345s.854-.531 1.345-.597c.459-.062 1.032-.062 1.697-.062h.299v-3.697l-1.255.748c-.7.42-1.599.679-2.3.163-.698-.514-.726-1.447-.543-2.244l.425-1.853a.517.517 0 00-.022-.215.491.491 0 00-.09-.188l-1.489-1.5c-.53-.536-.89-1.26-.655-2.001.236-.744.949-1.126 1.694-1.251l1.911-.32.014-.004a.658.658 0 00.276-.206l.008-.014.003-.005 1.056-2.131c.34-.683.918-1.282 1.715-1.282zm-1.426 4.077L11.626 3.2c.187-.376.34-.44.371-.45.033.01.182.074.367.447V3.2l1.055 2.127c.139.283.363.515.584.679.222.165.508.313.817.365l1.913.32c.228.038.366.101.44.152a.283.283 0 01.064.056c.008.011.01.018.01.018s.003.008.002.022a.288.288 0 01-.02.083 1.134 1.134 0 01-.272.384l-.002.001-1.488 1.5a1.95 1.95 0 00-.468.835 1.974 1.974 0 00-.043.951l.427 1.862c.069.303.068.507.046.624a.41.41 0 01-.018.07.292.292 0 01-.069-.003c-.115-.015-.307-.075-.572-.233l-1.793-1.07a1.924 1.924 0 00-.976-.251c-.315 0-.67.068-.976.248l-1.8 1.074c-.263.158-.453.217-.567.231a.375.375 0 01-.07.004.391.391 0 01-.02-.074c-.022-.117-.023-.319.046-.62l.426-1.857v-.005a1.975 1.975 0 00-.042-.951 1.949 1.949 0 00-.469-.835l-1.488-1.5a1.14 1.14 0 01-.271-.384.294.294 0 01-.02-.085c-.001-.014.001-.022.001-.022l.01-.018a.279.279 0 01.064-.055c.073-.05.21-.114.438-.152l1.913-.32h.003c.307-.053.591-.202.81-.366a1.93 1.93 0 00.582-.678zM15.25 21.25h-6.5V21c0-.728.002-1.2.048-1.546.044-.325.115-.427.172-.484.057-.057.159-.128.484-.172.347-.046.818-.048 1.546-.048h2c.728 0 1.2.002 1.546.048.325.044.427.115.484.172.057.057.128.159.172.484.046.347.048.818.048 1.546v.25z" fill="#1B8354"/></svg>