<svg width="20" height="20" fill="none" xmlns="http://www.w3.org/2000/svg"><path fill-rule="evenodd" clip-rule="evenodd" d="M7.958 1.042h-.082c-1.335 0-2.393 0-3.23.099-.859.101-1.566.314-2.157.8-.2.164-.384.347-.549.548-.484.59-.698 1.298-.8 2.157-.098.837-.098 1.895-.098 3.23v.081c0 1.336 0 2.393.099 3.23.101.86.315 1.567.8 2.157.164.2.348.385.548.55.56.459 1.225.674 2.024.782.65.087 1.43.109 2.371.114.011.518.035.974.088 1.37.101.75.317 1.381.819 1.883.501.502 1.133.717 1.883.818.722.097 1.64.097 2.78.097h.925c1.14 0 2.059 0 2.781-.097.75-.1 1.382-.316 1.883-.818.502-.502.718-1.133.819-1.883.097-.723.097-1.641.097-2.781v-.925c0-1.14 0-2.058-.097-2.78-.101-.75-.317-1.382-.819-1.884-.501-.501-1.133-.717-1.883-.818a12.476 12.476 0 00-1.37-.088c-.005-.94-.026-1.722-.114-2.371-.107-.8-.323-1.464-.783-2.024a3.96 3.96 0 00-.548-.549c-.591-.485-1.298-.698-2.157-.8-.837-.098-1.895-.098-3.23-.098zm5.582 5.833c-.005-.925-.026-1.63-.102-2.195-.091-.673-.253-1.084-.51-1.398a2.708 2.708 0 00-.376-.376c-.331-.271-.77-.437-1.511-.524-.755-.09-1.739-.09-3.124-.09s-2.369 0-3.124.09c-.741.087-1.18.253-1.51.524a2.708 2.708 0 00-.376.376c-.272.331-.437.77-.525 1.51-.089.756-.09 1.74-.09 3.125s.001 2.369.09 3.123c.088.742.253 1.18.525 1.511.112.138.238.263.375.376.314.258.725.42 1.398.51.566.076 1.27.097 2.195.103v-1.086c0-1.14 0-2.058.097-2.78.101-.75.317-1.382.819-1.884.501-.501 1.133-.717 1.883-.818.722-.097 1.64-.097 2.78-.097h1.086zm-4.865 1.8c.23-.232.554-.382 1.165-.464.63-.085 1.464-.086 2.66-.086h.834c1.196 0 2.03.001 2.66.086.611.082.935.232 1.166.463.23.23.38.555.463 1.166.084.63.086 1.464.086 2.66v.833c0 1.197-.002 2.03-.086 2.66-.082.612-.233.935-.463 1.166-.231.23-.555.381-1.166.463-.63.085-1.464.086-2.66.086H12.5c-1.196 0-2.03-.001-2.66-.086-.611-.082-.935-.232-1.165-.463-.231-.23-.382-.554-.464-1.166-.084-.63-.086-1.463-.086-2.66V12.5c0-1.196.002-2.03.086-2.66.082-.611.233-.935.463-1.166z" fill="#1B8354"/></svg>