<svg width="10" height="11" fill="none" xmlns="http://www.w3.org/2000/svg"><path d="M5 1.333V4.25l.833-.833M5 4.25l-.834-.833m-3.341 2.5h1.838c.158 0 .3.087.37.229l.488.975c.142.283.43.462.746.462h1.47a.835.835 0 00.747-.462l.487-.975a.416.416 0 01.37-.23H9.16" stroke="#292D32" stroke-width=".8" stroke-linecap="round" stroke-linejoin="round"/><path d="M2.917 2.22C1.442 2.438.834 3.305.834 5.084V6.75c0 2.083.833 2.917 2.917 2.917h2.5c2.083 0 2.916-.834 2.916-2.917V5.083c0-1.779-.608-2.646-2.083-2.862" stroke="#292D32" stroke-width=".8" stroke-linecap="round" stroke-linejoin="round"/></svg>