<svg width="90" height="90" fill="none" xmlns="http://www.w3.org/2000/svg"><path opacity=".4" d="M39.025 2.517C40.758 1.192 42.662.208 45 .208c2.337 0 4.241.984 5.975 2.309 1.625 1.237 3.416 3.029 5.512 5.125l.146.145c2.146 2.146 4.012 2.988 6.9 2.988.358 0 .817-.013 1.333-.025 1.313-.038 3.009-.088 4.492.037 2.17.184 4.892.767 6.97 2.825 2.093 2.075 2.688 4.809 2.88 6.996.13 1.496.08 3.204.042 4.525-.013.517-.025.971-.025 1.334 0 1.879.208 2.929.57 3.758.371.85 1.025 1.75 2.417 3.142l.146.146c2.096 2.095 3.888 3.887 5.125 5.512 1.325 1.733 2.308 3.637 2.308 5.975 0 2.337-.983 4.242-2.308 5.975-1.237 1.625-3.03 3.416-5.125 5.512l-.146.146c-1.392 1.392-2.046 2.292-2.417 3.142-.362.83-.57 1.88-.57 3.758 0 .363.012.817.025 1.334.037 1.32.087 3.029-.042 4.525-.192 2.187-.787 4.92-2.88 6.996-2.078 2.058-4.8 2.641-6.97 2.824-1.483.125-3.18.075-4.492.038-.516-.013-.97-.025-1.333-.025-1.837 0-2.87.183-3.683.52-.813.334-1.684.934-2.992 2.242-.28.28-.65.675-1.075 1.134-.958 1.025-2.204 2.358-3.367 3.379-1.766 1.542-4.3 3.292-7.416 3.292-3.117 0-5.65-1.75-7.417-3.292-1.162-1.02-2.408-2.354-3.367-3.38a46.199 46.199 0 00-1.075-1.133c-1.308-1.308-2.179-1.908-2.991-2.241-.813-.338-1.846-.521-3.684-.521-.362 0-.816.013-1.333.025-1.313.037-3.008.087-4.492-.038-2.17-.183-4.891-.766-6.97-2.825-2.092-2.075-2.688-4.808-2.88-6.995-.129-1.496-.079-3.204-.041-4.525.012-.517.025-.971.025-1.334 0-1.879-.209-2.929-.571-3.758-.37-.85-1.025-1.75-2.417-3.142l-.146-.146c-2.096-2.096-3.887-3.887-5.125-5.512C1.191 49.242.208 47.337.208 45c0-2.338.983-4.242 2.308-5.975 1.238-1.625 3.03-3.417 5.125-5.512l.146-.146c2.146-2.146 2.988-4.017 2.988-6.9 0-.363-.013-.817-.025-1.334-.038-1.312-.088-3.008.037-4.491.184-2.171.767-4.892 2.825-6.971 2.075-2.092 4.809-2.688 6.996-2.88 1.496-.129 3.204-.079 4.525-.041.517.012.97.025 1.333.025 2.884 0 4.755-.842 6.9-2.988l.146-.145c2.096-2.096 3.888-3.888 5.513-5.125z" fill="#88D8AD"/><path d="M61.196 32.66a4.167 4.167 0 01-1.771 5.62c-4.05 2.109-7.946 6.596-10.988 11.03a72.182 72.182 0 00-3.466 5.612c-.459.808-1 1.87-1.213 2.3a4.18 4.18 0 01-3.52 2.358 4.181 4.181 0 01-3.768-1.945c-.858-1.367-2.274-2.684-3.662-3.73-.4-.308-1.696-1.141-2.296-1.52a4.172 4.172 0 01-1.675-5.65 4.168 4.168 0 015.65-1.675h.008l1.03.612a32.221 32.221 0 013.641 2.65 79.827 79.827 0 012.396-3.725c3.209-4.675 8.063-10.608 14.013-13.708a4.167 4.167 0 015.62 1.77z" fill="#1B8354"/></svg>