<svg width="31" height="31" fill="none" xmlns="http://www.w3.org/2000/svg"><path d="M14.65 31c-3.187 0-6.528-.08-8.878-.218-1.963-.115-3.56-1.128-4.613-2.933C.321 26.413.022 24.807.022 23.78c-.023-1.805-.017-5.405-.01-9.238v-.168c.005-2.05.01-4.17.01-6.133 0-6.72 4.223-7.794 6.087-7.94.377-.053 3.08-.412 6.548-.266a1.081 1.081 0 11-.09 2.16c-3.448-.144-6.155.248-6.182.253a.726.726 0 01-.081.008c-1.88.136-4.121 1.25-4.121 5.787 0 1.963-.005 4.085-.01 6.137v.678c-.007 3.63-.014 6.986.01 8.71 0 .99.63 4.676 3.713 4.856 4.421.257 12.386.315 16.03.002l.014-.001.015-.002c.034-.002 3.303-.225 3.678-3.451.376-3.237.35-5.598.34-6.488 0-.066 0-.124-.002-.174v-.104a1.082 1.082 0 012.162 0c0 .064 0 .149.003.254v.013c.01.937.037 3.392-.355 6.748-.464 3.998-3.912 5.252-5.686 5.358-1.779.152-4.55.218-7.447.218l.002.003z" fill="#067647"/><path d="M21.24 11.56h-.055a1.079 1.079 0 01-.911-.597c-.625-1.25-1.233-1.875-1.24-1.881a1.082 1.082 0 011.53-1.53c.051.052.355.365.76.943.938-1.215 2.406-2.837 3.881-3.36a1.081 1.081 0 01.723 2.037c-1.226.434-2.966 2.613-3.775 3.885a1.082 1.082 0 01-.912.502v.001z" fill="#067647"/><path fill-rule="evenodd" clip-rule="evenodd" d="M14.408 8.317c0 4.57 3.722 8.289 8.296 8.289S31 12.888 31 8.316c0-4.57-3.722-8.289-8.296-8.289s-8.296 3.718-8.296 8.29zm2.162 0c0-3.378 2.752-6.127 6.134-6.127 3.382 0 6.134 2.749 6.134 6.127 0 3.377-2.752 6.126-6.134 6.126-3.382 0-6.134-2.749-6.134-6.126z" fill="#067647"/><path d="M14.033 18.047H8.266a1.082 1.082 0 010-2.162h5.767a1.082 1.082 0 010 2.162zm-5.767 5.767H19.8a1.082 1.082 0 000-2.163H8.266a1.082 1.082 0 000 2.163z" fill="#067647"/></svg>