<svg width="22" height="22" fill="none" xmlns="http://www.w3.org/2000/svg"><path d="M9.051 14.059a.743.743 0 00.553.189.752.752 0 00.521-.266l4.2-5a.751.751 0 00-1.149-.966l-3.703 4.409-1.223-1.093a.75.75 0 10-.999 1.12l1.8 1.607z" fill="#1B8354"/><path fill-rule="evenodd" clip-rule="evenodd" d="M8.212 20.2c.608.655 1.44 1.55 2.538 1.55 1.098 0 1.93-.895 2.538-1.55l.015-.016c.105-.112.203-.218.292-.306.553-.552.822-.665 1.603-.665.115 0 .238.004.366.008h.013c.819.024 1.94.056 2.692-.689.758-.752.726-1.88.702-2.704v-.014c-.004-.127-.008-.25-.008-.366 0-.78.12-1.059.717-1.655 1.173-1.172 1.819-1.82 1.819-2.792 0-.973-.646-1.62-1.819-2.792-.596-.597-.717-.875-.717-1.656 0-.115.004-.239.008-.366v-.013c.024-.825.056-1.953-.702-2.706-.752-.745-1.872-.713-2.691-.69l-.019.001c-.126.004-.247.008-.361.008-.684 0-1.133-.194-1.656-.717C12.37.897 11.723.25 10.75.25c-.973 0-1.619.646-2.792 1.82-.523.522-.972.717-1.656.717-.115 0-.237-.004-.363-.008h-.016c-.825-.024-1.953-.056-2.706.702-.745.752-.713 1.873-.689 2.69v.02c.004.126.008.246.008.36 0 .684-.194 1.134-.717 1.657C.646 9.38 0 10.027 0 10.999c0 .973.646 1.62 1.819 2.792.596.598.717.876.717 1.657 0 .114-.004.238-.008.365v.013c-.024.825-.056 1.953.703 2.706.752.745 1.873.713 2.692.69h.013c.128-.005.251-.009.366-.009.781 0 1.051.111 1.603.663.093.095.197.206.307.325zm.753-1.384c-.836-.834-1.483-1.102-2.663-1.102l-.002-.002c-.128 0-.264.004-.406.008h-.023c-.578.017-1.292.036-1.586-.255-.296-.294-.276-1.017-.259-1.598v-.016c.004-.141.008-.277.008-.406 0-1.18-.297-1.854-1.157-2.716l-.012-.012c-.853-.853-1.367-1.368-1.367-1.72 0-.352.519-.871 1.379-1.731.8-.8 1.157-1.637 1.157-2.716 0-.129-.004-.264-.008-.406v-.019c-.017-.577-.038-1.295.255-1.59.295-.296 1.017-.277 1.598-.26h.016c.142.005.278.008.406.008 1.078 0 1.916-.356 2.716-1.156.86-.86 1.379-1.38 1.732-1.38s.872.52 1.732 1.38c.799.8 1.637 1.157 2.716 1.157.128 0 .264-.004.405-.008h.019c.577-.018 1.296-.038 1.591.255.296.295.276 1.017.259 1.598v.016c-.004.141-.008.277-.008.405 0 1.18.297 1.856 1.157 2.717l.011.01C19.485 10.133 20 10.648 20 11c0 .352-.503.856-1.379 1.731-.876.875-1.157 1.535-1.157 2.716 0 .129.004.265.008.406v.017c.017.58.037 1.302-.259 1.596-.295.294-1.015.273-1.593.256h-.017a14.998 14.998 0 00-.405-.009c-1.18 0-1.827.268-2.663 1.104-.106.105-.212.22-.324.34l-.025.027c-.42.45-.992 1.066-1.435 1.066-.444 0-1.019-.618-1.439-1.07l-.05-.054a15.38 15.38 0 00-.296-.31z" fill="#1B8354"/></svg>