<svg width="20" height="20" fill="none" xmlns="http://www.w3.org/2000/svg"><path d="M7.017 10A2.98 2.98 0 0010 12.983 2.98 2.98 0 0012.983 10 2.98 2.98 0 0010 7.017 2.98 2.98 0 007.017 10z" stroke="#525252" stroke-width="1.5" stroke-linecap="round" stroke-linejoin="round"/><path d="M10 16.892c-2.942 0-5.683-1.734-7.592-4.734-.75-1.175-.75-3.15 0-4.325C4.317 4.833 7.058 3.1 10 3.1c2.942 0 5.684 1.733 7.592 4.733.75 1.175.75 3.15 0 4.325-1.908 3-4.65 4.734-7.592 4.734z" stroke="#525252" stroke-width="1.5" stroke-linecap="round" stroke-linejoin="round"/></svg>