<svg width="21" height="21" fill="none" xmlns="http://www.w3.org/2000/svg"><path d="M14.672 5.002c-.876 0-1.655 0-2.283.084-.683.092-1.373.304-1.937.868-.564.564-.776 1.254-.868 1.937C9.5 8.521 9.5 9.3 9.5 10.175v.829h-.75a1.25 1.25 0 000 2.5h.75v5.998c0 .474 0 .711-.149.858-.148.147-.384.144-.854.138-1.19-.015-2.201-.057-3.059-.172-1.377-.185-2.469-.573-3.327-1.431-.858-.858-1.245-1.951-1.43-3.328C.5 14.223.5 12.502.5 10.31v-.114c0-2.191 0-3.913.18-5.256.186-1.378.573-2.47 1.43-3.329C2.97.753 4.062.366 5.439.181 6.781 0 8.502 0 10.693 0h.114c2.19 0 3.912 0 5.255.18 1.377.186 2.469.573 3.327 1.431.858.859 1.245 1.951 1.43 3.329C21 6.283 21 8.005 21 10.196v.114c0 2.192 0 3.913-.18 5.257-.186 1.377-.573 2.47-1.43 3.328-.86.858-1.951 1.246-3.328 1.43-.858.116-1.87.158-3.059.173-.47.006-.706.009-.854-.138-.149-.147-.149-.384-.149-.858v-5.998h1.75a1.25 1.25 0 000-2.5H12v-.75c0-.98.003-1.587.062-2.03.054-.398.133-.477.157-.5v-.002l.002-.001c.023-.024.102-.103.501-.157.442-.059 1.05-.062 2.028-.062h1a1.25 1.25 0 000-2.5h-1.078z" fill="#1B8354"/></svg>