<svg width="19" height="19" fill="none" xmlns="http://www.w3.org/2000/svg"><path fill-rule="evenodd" clip-rule="evenodd" d="M12.721 5.501l-.07-.045c-1.135-.73-2.034-1.308-2.768-1.662-.737-.357-1.439-.554-2.132-.343a2.783 2.783 0 00-1.095.64c-.523.493-.726 1.201-.821 2.039-.095.834-.095 1.934-.095 3.33v.08c0 1.396 0 2.495.095 3.33.095.837.298 1.546.821 2.04.313.294.687.513 1.095.638.693.212 1.395.014 2.132-.342.734-.355 1.633-.932 2.768-1.662l.07-.046c1.043-.67 1.87-1.202 2.46-1.69.598-.495 1.04-1.015 1.182-1.69a3.008 3.008 0 000-1.236c-.142-.675-.584-1.195-1.182-1.691-.59-.487-1.417-1.02-2.46-1.69zM8.1 4.587c.25-.077.604-.044 1.268.276.66.32 1.498.857 2.677 1.615 1.085.697 1.852 1.192 2.38 1.628.523.433.717.737.777 1.02.051.246.051.501 0 .747-.06.284-.255.588-.778 1.02-.527.437-1.294.931-2.379 1.629-1.178.758-2.017 1.295-2.677 1.614-.664.321-1.017.354-1.268.277a1.596 1.596 0 01-.628-.367c-.207-.196-.37-.546-.457-1.31-.086-.76-.087-1.792-.087-3.236 0-1.445.001-2.477.087-3.236.088-.764.25-1.115.457-1.31.182-.172.397-.296.628-.367z" fill="#fff"/><path d="M3.76 3.958a.594.594 0 00-1.187 0v11.083a.594.594 0 001.187 0V3.958z" fill="#fff"/></svg>