<svg width="19" height="18" fill="none" xmlns="http://www.w3.org/2000/svg"><mask id="a" style="mask-type:luminance" maskUnits="userSpaceOnUse" x="0" y="0" width="19" height="18"><path fill="#fff" d="M.5 0h18v18H.5z"/></mask><g mask="url(#a)" fill-rule="evenodd" clip-rule="evenodd"><path d="M16.854 7.531h-.604V7.5H9.5v3h4.239A4.498 4.498 0 015 9a4.5 4.5 0 014.5-4.5c1.147 0 2.19.433 2.985 1.14l2.122-2.122A7.465 7.465 0 009.5 1.5a7.5 7.5 0 107.354 6.031z" fill="#FFC107"/><path d="M2.865 5.51l2.464 1.806A4.498 4.498 0 019.5 4.5c1.147 0 2.19.433 2.985 1.14l2.122-2.122A7.465 7.465 0 009.5 1.5a7.496 7.496 0 00-6.635 4.01z" fill="#FF3D00"/><path d="M9.5 16.5a7.465 7.465 0 005.028-1.947l-2.32-1.964A4.467 4.467 0 019.5 13.5a4.498 4.498 0 01-4.231-2.98l-2.446 1.885A7.494 7.494 0 009.5 16.5z" fill="#4CAF50"/><path d="M16.854 7.531h-.604V7.5H9.5v3h4.239a4.514 4.514 0 01-1.533 2.09l.001-.002 2.321 1.965C14.364 14.702 17 12.75 17 9a7.56 7.56 0 00-.146-1.469z" fill="#1976D2"/></g></svg>