<svg width="24" height="24" fill="none" xmlns="http://www.w3.org/2000/svg"><path fill-rule="evenodd" clip-rule="evenodd" d="M6.75 12a5.25 5.25 0 1110.5 0 5.25 5.25 0 01-10.5 0zM12 8.25a3.75 3.75 0 100 7.5 3.75 3.75 0 000-7.5z" fill="#1B8354"/><path d="M17.508 7.5a1 1 0 100-2h-.01a1 1 0 100 2h.01z" fill="#1B8354"/><path fill-rule="evenodd" clip-rule="evenodd" d="M12.057 1.75c2.19 0 3.912 0 5.255.18 1.377.186 2.469.573 3.327 1.43.858.86 1.245 1.951 1.43 3.328.181 1.343.181 3.064.181 5.255v.114c0 2.19 0 3.912-.18 5.255-.186 1.377-.573 2.469-1.43 3.327-.86.858-1.951 1.245-3.328 1.43-1.343.181-3.064.181-5.255.181h-.114c-2.19 0-3.912 0-5.255-.18-1.377-.186-2.469-.573-3.327-1.43-.858-.86-1.245-1.951-1.43-3.328-.181-1.343-.181-3.064-.181-5.255v-.114c0-2.19 0-3.912.18-5.255.186-1.377.573-2.469 1.43-3.327.86-.858 1.951-1.245 3.328-1.43 1.343-.181 3.064-.181 5.255-.181h.114zm-5.17 1.667c-1.21.163-1.932.472-2.465 1.005-.533.533-.842 1.256-1.005 2.466C3.252 8.12 3.25 9.74 3.25 12c0 2.26.002 3.88.167 5.112.163 1.21.472 1.933 1.005 2.466.533.534 1.256.842 2.466 1.005 1.232.165 2.852.167 5.112.167 2.26 0 3.88-.002 5.112-.167 1.21-.163 1.933-.471 2.466-1.005.534-.533.842-1.256 1.005-2.466.165-1.232.167-2.852.167-5.112 0-2.26-.002-3.88-.167-5.112-.163-1.21-.471-1.933-1.005-2.466-.533-.533-1.256-.842-2.466-1.005C15.88 3.252 14.26 3.25 12 3.25c-2.26 0-3.88.002-5.112.167z" fill="#1B8354"/></svg>