<svg width="21" height="21" fill="none" xmlns="http://www.w3.org/2000/svg"><path fill-rule="evenodd" clip-rule="evenodd" d="M10.807 0c2.19 0 3.912 0 5.255.18 1.377.186 2.469.573 3.327 1.43.858.86 1.245 1.951 1.43 3.328C21 6.281 21 8.002 21 10.193v.114c0 2.19 0 3.912-.18 5.255-.186 1.377-.573 2.469-1.43 3.327-.86.858-1.951 1.245-3.328 1.43-1.343.181-3.064.181-5.255.181h-.114c-2.19 0-3.912 0-5.255-.18-1.377-.186-2.469-.573-3.327-1.43-.858-.86-1.245-1.951-1.43-3.328C.5 14.219.5 12.498.5 10.307v-.114c0-2.19 0-3.912.18-5.255.186-1.377.573-2.469 1.43-3.327C2.97.753 4.062.366 5.439.18 6.781 0 8.502 0 10.693 0h.114zm4.443 10.25a4.5 4.5 0 11-9 0 4.5 4.5 0 019 0zm1.012-4.5c.55 0 .996-.448.996-1s-.446-1-.996-1h-.009a.998.998 0 00-.995 1c0 .552.446 1 .995 1h.01z" fill="#1B8354"/></svg>