<svg width="24" height="24" fill="none" xmlns="http://www.w3.org/2000/svg"><path d="M7.75 10a.75.75 0 00-1.5 0v7a.75.75 0 001.5 0v-7zM11 9.25a.75.75 0 01.75.75 3.75 3.75 0 016 3v4a.75.75 0 01-1.5 0v-4a2.25 2.25 0 00-4.5 0v4a.75.75 0 01-1.5 0v-7a.75.75 0 01.75-.75zM8.008 7a1 1 0 01-1 1H7a1 1 0 010-2h.01a1 1 0 011 1z" fill="#1B8354"/><path fill-rule="evenodd" clip-rule="evenodd" d="M12.057 1.75h-.114c-2.19 0-3.912 0-5.255.18-1.377.186-2.469.573-3.327 1.43-.858.86-1.245 1.951-1.43 3.328-.181 1.343-.181 3.064-.181 5.255v.114c0 2.19 0 3.912.18 5.255.186 1.377.573 2.469 1.43 3.327.86.858 1.951 1.245 3.328 1.43 1.343.181 3.064.181 5.255.181h.114c2.19 0 3.912 0 5.255-.18 1.377-.186 2.469-.573 3.327-1.43.858-.86 1.245-1.951 1.43-3.328.181-1.343.181-3.064.181-5.255v-.114c0-2.19 0-3.912-.18-5.255-.186-1.377-.573-2.469-1.43-3.327-.86-.858-1.951-1.245-3.328-1.43-1.343-.181-3.064-.181-5.255-.181zM4.422 4.422c.533-.533 1.256-.842 2.466-1.005C8.12 3.252 9.74 3.25 12 3.25c2.26 0 3.88.002 5.112.167 1.21.163 1.933.472 2.466 1.005.534.533.842 1.256 1.005 2.466.165 1.232.167 2.852.167 5.112 0 2.26-.002 3.88-.167 5.112-.163 1.21-.471 1.933-1.005 2.466-.533.534-1.256.842-2.466 1.005-1.232.165-2.852.167-5.112.167-2.26 0-3.88-.002-5.112-.167-1.21-.163-1.933-.471-2.466-1.005-.533-.533-.842-1.256-1.005-2.466C3.252 15.88 3.25 14.26 3.25 12c0-2.26.002-3.88.167-5.112.163-1.21.472-1.933 1.005-2.466z" fill="#1B8354"/></svg>