<svg width="20" height="20" fill="none" xmlns="http://www.w3.org/2000/svg"><path d="M16.223 3.831a3.595 3.595 0 00-5.221 0l-.595.62a.625.625 0 00.902.865l.594-.619a2.345 2.345 0 013.418 0c.96 1 .96 2.63 0 3.63l-2.7 2.809a2.434 2.434 0 01-.484.392 2.341 2.341 0 01-2.933-.392 2.546 2.546 0 01-.337-.438.625.625 0 10-1.067.652c.141.231.309.45.503.652a3.591 3.591 0 004.489.59c.262-.16.508-.358.731-.59l2.7-2.81c1.425-1.483 1.425-3.877 0-5.36z" fill="#1B8354"/><path d="M11.697 7.998a3.595 3.595 0 00-5.22 0l-2.7 2.81c-1.425 1.483-1.425 3.877 0 5.36a3.595 3.595 0 005.22 0l.595-.618a.625.625 0 00-.901-.866l-.595.619a2.346 2.346 0 01-3.418 0c-.96-1-.96-2.63 0-3.63l2.7-2.809a2.345 2.345 0 013.418 0c.13.136.242.282.337.437A.625.625 0 0012.2 8.65a3.797 3.797 0 00-.503-.652z" fill="#1B8354"/></svg>