<svg width="20" height="19" fill="none" xmlns="http://www.w3.org/2000/svg"><path d="M5.338 2.25a2.25 2.25 0 11-4.5 0 2.25 2.25 0 014.5 0zm-2.5 4.25c-.943 0-1.415 0-1.708.293-.292.293-.292.764-.292 1.707V17c0 .943 0 1.414.292 1.707.293.293.765.293 1.708.293h.5c.942 0 1.414 0 1.707-.293.293-.293.293-.764.293-1.707V8.5c0-.943 0-1.414-.293-1.707C4.752 6.5 4.28 6.5 3.338 6.5h-.5zm6.5 0h.826c.63 0 .945 0 1.178.137a1 1 0 01.359.358c.136.234.137.549.137 1.179.776-1.02 1.965-1.674 3.296-1.674 2.34 0 4.704 2.015 4.704 4.5l-.002 5.5c0 .943 0 1.415-.293 1.707-.293.293-.764.293-1.707.293h-.498c-.943 0-1.415 0-1.708-.293-.293-.293-.293-.764-.293-1.707V12c0-.828-.632-1.5-1.412-1.5-1.56 0-2.087 1.343-2.087 3V17c0 .943 0 1.414-.293 1.707-.293.293-.765.293-1.707.293h-.5c-.943 0-1.415 0-1.708-.293-.292-.293-.292-.764-.292-1.707V8.5c0-.943 0-1.414.292-1.707.293-.293.765-.293 1.708-.293z" fill="#1B8354"/></svg>