<svg width="98" height="77" fill="none" xmlns="http://www.w3.org/2000/svg"><path d="M.134 31.7l29.365 28.781h15.103L.134 31.701z" fill="#23A6E0"/><path d="M10.574 17.834L37.45 51.52l-2.442 2.754-11.595-7.505-12.84-28.934z" fill="#5BBCAD"/><path d="M23.413 46.768l11.595 7.504-5.509 6.21h15.103-15.103l-6.086-13.714z" fill="#007B9A"/><path d="M83.157 0l-32.24 60.482H29.5L83.157 0z" fill="#F28A18"/><path d="M97.963 19.664L50.918 60.482l9.978-18.718 37.067-22.1z" fill="#F8CA56"/><path d="M60.895 41.764l-9.977 18.718H29.499l31.396-18.718z" fill="#E56610"/><path d="M31.577 24.372l4.902 2.89-.182 1.05-1.337.256-3.383-4.196zm8.586 6.105l3.39 4.055-5.024-2.843.184-.961 1.45-.25z" fill="#F28A18"/><path d="M34.96 28.568l.787.976-.793.948-5.289-.913 5.295-1.011z" fill="#F8CA56"/><path d="M36.297 28.313l-.124.72-.426.51-.787-.975 1.337-.256z" fill="#E56610"/><path d="M40.157 28.583l5.215.995-5.21.9-.78-.934.775-.961z" fill="#F8CA56"/><path d="M39.383 29.544l.78.933-1.45.25.088-.463.581-.72z" fill="#E56610"/><path d="M43.553 24.372l-3.396 4.211-1.44-.274-.186-.977 5.022-2.96zm-8.598 6.12l1.346.232.178 1.034-4.903 2.775 3.379-4.042z" fill="#23A6E0"/><path d="M38.717 28.308l1.44.275-.774.96-.558-.665-.108-.57zm-2.97 1.236l.446.553.108.627-1.346-.232.792-.948z" fill="#678458"/><path d="M38.826 28.878l.556.665-.58.722.144-.758-.011-.06-.11-.57zm-2.653.156l-.071.414-.01.06.101.589-.445-.554.425-.509z" fill="#7A541A"/><path d="M37.447 21.654l1.083 5.678-.966.57-1.085-.64.968-5.608zm.118 9.49l.964.545-1.082 5.67-.967-5.601 1.085-.614z" fill="#5BBCAD"/><path d="M36.48 27.261l1.085.64-.425.25-.843.161.182-1.05zm2.233 3.467l-.184.961-.964-.545.553-.314.594-.102z" fill="#947F21"/><path d="M37.14 28.152l-.453.266-.515.616.126-.721.842-.161zm1.572 2.576l-.593.103.415-.236.267-.33-.089.463z" fill="#84651E"/><path d="M38.53 27.332l.187.976-.684-.13-.468-.277.966-.569z" fill="#007B9A"/><path d="M38.034 28.178l-.516-.098-.378.072.425-.25.47.276z" fill="#435221"/><path d="M36.301 30.724l.75.13.514.29-1.085.614-.179-1.034z" fill="#007B9A"/><path d="M37.565 31.144l-.514-.29.467.08.6-.104-.553.314z" fill="#435221"/><path d="M38.034 28.178l.683.13.109.57-.384-.46-.408-.24zm-1.84 1.919l.4.498.457.258-.75-.129-.108-.627z" fill="#095F3B"/><path d="M37.518 28.08l.516.098.408.24.384.46.109.57.01.06-.144.756-.267.332-.415.235-.6.103-.467-.08-.457-.258-.402-.5-.102-.589.01-.06.072-.413.515-.615.452-.268.378-.071z" fill="#40411D"/><path d="M97.076 66.312a.31.31 0 01-.309-.303c0-.162.14-.296.309-.296.162 0 .302.134.302.296 0 .163-.14.303-.302.303zm-.786 0a.308.308 0 01-.302-.303c0-.162.14-.296.302-.296.164 0 .296.134.296.296a.302.302 0 01-.296.303zm-2.218 3.658c.169 0 .296.133.296.296a.298.298 0 01-.296.302.307.307 0 01-.302-.302c0-.163.14-.297.302-.297zm-.779 0c.163 0 .296.133.296.296a.302.302 0 01-.296.302.307.307 0 01-.302-.302c0-.163.14-.297.302-.297zm2.968-1.85c0 .285.041.494.117.623.087.156.25.232.477.232.226 0 .389-.076.476-.232.076-.129.117-.338.117-.623s-.041-.494-.117-.616c-.087-.151-.25-.227-.476-.227h-.594v.843zm-4.807.844v-1.088c0-.332-.209-.582-.558-.582-.174 0-.332.082-.471.25l-.413-.372c.233-.227.506-.342.82-.342.367 0 .657.11.866.33.204.216.308.49.308.809v.994h.647v.012h.186c.384 0 .576-.192.576-.576v-1.57l.547.163v1.39c0 .395.192.593.582.593h.595c.378 0 .57-.198.57-.593V66.83h1.18c.739 0 1.111.43 1.111 1.29 0 .89-.372 1.333-1.11 1.333-.437 0-.722-.134-.855-.408-.122.274-.413.408-.866.408h-.66c-.355 0-.628-.105-.826-.309-.197.204-.465.309-.808.309h-3.328l.413-.49h1.494v.002zm-9.078-2.652a.308.308 0 01-.301-.303c0-.162.14-.296.301-.296.158 0 .297.134.297.296 0 .163-.14.303-.297.303zm.78 0a.308.308 0 01-.303-.303c0-.162.14-.296.303-.296.168 0 .296.134.296.296a.299.299 0 01-.296.303zm2.707 3.082c.412 0 .616-.256.616-.773 0-.519-.204-.774-.616-.774-.408 0-.61.255-.61.774 0 .517.202.773.61.773zm-5.79-2.565c.47 0 .895.193 1.285.57l-.396.367c-.273-.297-.57-.448-.89-.448-.377 0-.633.163-.761.488-.082.198-.122.518-.122.96v.21h2.705c.384 0 .576-.193.576-.577v-1.57l.547.163v1.39c0 .395.192.593.582.593h.263v-.012l.117.012c.413 0 .651-.192.715-.57.052-.342.157-.599.326-.756.186-.174.465-.261.843-.261.686 0 1.076.337 1.175 1.017.047.372.28.558.692.558h.524c.192 0 .285-.092.285-.279v-2.982l.553.174v2.826c0 .448-.273.75-.767.75h-.63c-.314 0-.553-.099-.72-.29-.158.44-.583.698-1.111.698-.56 0-.99-.286-1.128-.774-.178.233-.433.352-.754.362v.004h-.418c-.355 0-.628-.105-.826-.308-.198.203-.465.308-.808.308h-3.305v-.686c0-.564.076-1 .227-1.297.226-.424.633-.64 1.22-.64zm.011 3.141c.163 0 .296.133.296.296a.302.302 0 01-.296.302.307.307 0 01-.303-.302c0-.163.14-.297.303-.297zm-4.107-1.588c0 .39.191.581.575.581h.221V65.94l.553.162v2.861h.587l.256.49h-1.65c-.332 0-.595-.1-.793-.292a.993.993 0 01-.296-.738v-2.762l.547.163v2.558zm-1.003-2.506v3.576h-.552v-3.75l.552.174zm-3.42 1.326a.304.304 0 01-.303-.303c0-.163.14-.302.303-.302.163 0 .296.139.296.302 0 .17-.133.303-.296.303zm-.484-.302a.302.302 0 01-.296.302.304.304 0 01-.302-.303c0-.163.14-.303.302-.303.157 0 .297.14.297.303zm.088-.373a.308.308 0 01-.302-.303.303.303 0 01.604 0c0 .163-.14.303-.302.303z" fill="#5BBCAD"/><path d="M69.606 68.394c0 .378.192.57.58.57h1.961c.383 0 .575-.192.575-.57v-1.088l.547.558v.588c0 .599-.418 1-1.047 1h-2.064c-.68 0-1.094-.39-1.094-1V66.83l.542.145v1.419zm-8.784 1.581c.163 0 .303.14.303.297 0 .163-.14.302-.303.302a.302.302 0 01-.295-.302.3.3 0 01.295-.297zm6.077-1h.511c.43 0 .645-.239.645-.71 0-.587-.203-.877-.604-.877-.239 0-.401.098-.483.29-.053.123-.076.314-.076.588l.007.71zm-7.98-.604c0 .395.193.593.57.593h.343v.011h.177c.383 0 .576-.192.576-.576v-1.57l.546.163v1.39c0 .395.192.593.581.593h.247v-.011h.721v-.198c0-.564.076-1 .233-1.297.227-.424.634-.64 1.221-.64.465 0 .89.192 1.28.57l-.396.367c-.273-.297-.564-.448-.884-.448-.384 0-.64.162-.768.488-.081.199-.121.518-.121.96v.21h3.106c-.004-.291-.01-.53-.01-.71 0-.908.372-1.36 1.11-1.36.395 0 .698.145.902.43.168.238.255.546.255.93 0 .349-.098.628-.296.837-.21.227-.511.344-.901.35h-.454c.047.343.314.627.68.633.285.012.587-.058.914-.204l-.245.536c-.157.098-.384.15-.68.15-.343 0-.622-.11-.844-.336a1.373 1.373 0 01-.378-.78h-4.726c-.354 0-.628-.104-.825-.308-.199.204-.466.309-.809.309h-.584c-.33 0-.598-.1-.795-.291a1 1 0 01-.297-.74v-2.709l.552.163v2.495zm-1.006-2.495v3.576h-.553v-3.75l.553.174zm-2.141 3.174c.39 0 .587-.272.587-.82 0-.552-.197-.825-.587-.825-.39 0-.582.273-.582.826 0 .547.192.82.582.82zm0-2.122c.4 0 .704.14.895.413.158.228.239.523.239.89s-.081.657-.239.884c-.192.28-.494.419-.895.419-.203 0-.384-.047-.552-.14.046.436.279.668.697.692.285.017.593-.047.925-.204l-.244.535c-.163.1-.39.152-.68.152-.413 0-.728-.134-.943-.396-.203-.233-.302-.546-.308-.948 0-.058-.006-.18-.017-.366-.006-.168-.006-.315-.006-.424 0-.449.064-.791.192-1.03.18-.32.494-.477.936-.477zm-5.946 1.466c0 .378.192.57.581.57h1.96c.385 0 .576-.192.576-.57v-1.088l.547.558v.588c0 .599-.419 1-1.047 1h-2.064c-.68 0-1.094-.39-1.094-1V66.83l.541.145v1.419z" fill="#5BBCAD"/><path d="M51.775 67.202a.304.304 0 01-.303-.303c0-.163.14-.302.303-.302.162 0 .296.139.296.302 0 .17-.134.303-.296.303zm-.78 0a.304.304 0 01-.302-.303c0-.163.14-.302.302-.302.157 0 .297.139.297.302 0 .17-.14.303-.297.303zm-7.511 1.192c0 .378.192.57.57.57h.593v-1.885l.553.163v1.733h1.139v-1.64l.552.157v1.472h1.101c.192 0 .285-.093.285-.28v-2.982l.552.173v2.827c0 .448-.273.75-.767.75h-4.037c-.669 0-1.093-.401-1.093-1v-1.634l.552.168v1.408zm-1.028-2.518v3.576h-.551v-3.75l.551.174zm-2.215 3.419c0 .489.285.79.756.79.33 0 .622-.075.884-.22l-.262.546a1.146 1.146 0 01-.622.157c-.4 0-.721-.115-.954-.354-.238-.238-.354-.547-.354-.936V66.83l.552.162v2.303zm-7.217-.925c0 .396.193.593.57.593h.549c.378 0 .57-.185.57-.563v-2.698l.552.174v2.495c0 .395.192.593.576.593h1.084V67.83c0-.302.105-.54.32-.722.215-.18.488-.273.831-.273.262 0 .523.117.785.344v.627c-.192-.337-.454-.506-.785-.506-.401 0-.605.192-.605.57v1.105h1.43l.332.477h-3.427c-.355 0-.629-.105-.82-.314-.204.21-.47.314-.808.314h-.612c-.332 0-.6-.1-.797-.29a1 1 0 01-.297-.74v-2.71l.552.164v2.495zm-2.816 2.664c.163 0 .303.14.303.296 0 .163-.14.303-.303.303a.304.304 0 01-.302-.303c0-.156.134-.296.302-.296zm-.784 0c.169 0 .302.14.302.296a.304.304 0 01-.302.303.308.308 0 01-.303-.303c0-.156.14-.296.303-.296zm-2.201-4.722a.308.308 0 01-.302-.303.302.302 0 01.605 0c0 .163-.14.303-.303.303zm-4.863 2.651h2.599a2.404 2.404 0 00-.546-1.04c-.338-.39-.704-.582-1.094-.565a.945.945 0 00-.744.39c-.15.273-.227.588-.227.954 0 .087.006.174.012.261zm.995-2.105c.68.017 1.203.326 1.581.937v-1.99l.553.17v2.989h.715v.011h.152c.385 0 .576-.192.576-.576v-1.57l.547.163v1.39c0 .396.192.593.581.593h.555c.372 0 .524-.122.669-.488l.256.523c-.116.267-.355.414-.716.442.025.273.152.454.384.54.123.053.32.077.6.077.645.005.988-.39.988-1.059 0-.402-.116-.855-.343-1.36l.634.383c.156.373.232.733.232 1.082 0 .43-.116.773-.349 1.023-.261.285-.65.43-1.163.43-.436 0-.78-.086-1.035-.266-.285-.198-.418-.483-.395-.85h-.351c-.355 0-.629-.104-.826-.308-.198.204-.465.309-.808.309h-4.55c0-.088-.005-.222-.011-.401-.006-.181-.011-.315-.011-.402 0-.46.086-.837.255-1.122.285-.46.715-.688 1.28-.67zm-3.702 2.117h.512c.43 0 .646-.239.646-.71 0-.587-.204-.877-.605-.877-.238 0-.402.098-.483.29-.052.123-.075.314-.075.588l.005.71zm-1.956-.604c0 .395.192.593.57.593h.343v.011h.497c-.006-.29-.012-.529-.012-.71 0-.907.372-1.36 1.111-1.36.395 0 .698.146.901.43.17.24.256.547.256.931 0 .349-.098.628-.296.837-.21.227-.512.344-.902.35h-.453c.047.343.314.627.68.633.285.012.588-.058.913-.204l-.243.536c-.158.098-.385.15-.681.15-.343 0-.622-.11-.843-.336a1.372 1.372 0 01-.378-.78h-.921c-.332 0-.6-.099-.798-.29a1.003 1.003 0 01-.296-.74v-2.709l.553.163-.001 2.495zm-1.007-2.495v3.576h-.552v-3.75l.552.174zm-3.153.436a.303.303 0 01-.297-.303c0-.168.134-.307.297-.307.163 0 .303.139.303.307 0 .163-.14.303-.303.303zm-3.793 1.07c.273-.244.61-.366 1.011-.366.088 0 .17.005.256.017l-1.255-1.32h.72l1.81 1.884-.379.355a1.28 1.28 0 00-1.018-.454c-.32 0-.581.093-.78.279a.97.97 0 00-.278.564 4.292 4.292 0 00-.023.634h2.595v-.012h.82V66.83l.552.162v2.303c0 .488.285.79.756.79.332 0 .623-.075.884-.22l-.261.546a1.15 1.15 0 01-.623.157c-.75 0-1.227-.442-1.302-1.116H9.244c0-.658.005-1.03.017-1.111.047-.4.21-.721.483-.96zm-5.39 2.012c.413 0 .617-.256.617-.773 0-.518-.204-.774-.617-.774-.407 0-.61.256-.61.774 0 .517.203.773.61.773zM1.56 68.371c0 .395.192.592.57.592h.344v.012c.41-.001.648-.193.712-.57.052-.343.157-.6.325-.756.186-.174.466-.261.844-.261.685 0 1.075.337 1.174 1.017.047.373.28.559.692.559h.805V66.83l.553.162v2.303c0 .488.285.79.756.79.33 0 .621-.075.884-.22l-.263.546a1.145 1.145 0 01-.621.158c-.75 0-1.227-.443-1.303-1.117h-.846c-.313 0-.551-.1-.72-.29-.158.44-.581.697-1.11.697-.56 0-.99-.285-1.129-.774-.177.234-.431.352-.753.363v.004h-.372c-.331 0-.6-.1-.797-.29a1.003 1.003 0 01-.296-.74v-2.71l.552.164v2.495zM.554 65.876v3.576H0v-3.75l.553.174z" fill="#5BBCAD"/><path d="M95.44 76.334l2.043-2.992v2.936h.512v-4.092h-.216l-1.988 2.83v-2.83h-.512v4.148h.161zm-2.514-1.524c.162-.039.275-.056.34-.056.26 0 .47.068.634.206a.624.624 0 01.245.489c0 .311-.177.467-.531.467-.259 0-.489-.128-.689-.383v-.724zm-.048 1.125c.204.266.519.399.94.399a.795.795 0 00.59-.255.874.874 0 00.25-.636c0-.303-.128-.56-.384-.77-.256-.209-.583-.314-.981-.314-.107 0-.23.025-.367.073 0-.485.209-.727.626-.727.32 0 .566.09.739.269l.216-.445a1.263 1.263 0 00-.403-.211 1.53 1.53 0 00-.492-.088c-.42 0-.724.099-.913.296-.19.198-.285.511-.285.942v1.072c0 .263-.076.438-.227.526v.265c.209 0 .365-.031.468-.092a.518.518 0 00.223-.304zm-1.454-2.229h.335v-.42h-.335v-.625l-.513-.204v.83h-.793v.419h.793v1.486c0 .25-.04.43-.122.537-.082.105-.214.159-.395.159a.925.925 0 01-.408-.104l-.075.466c.212.056.445.084.698.084a.746.746 0 00.579-.264.963.963 0 00.236-.666v-1.698zm-2.536-1.55a.301.301 0 00-.225.096.32.32 0 00-.093.23.326.326 0 00.318.33c.086 0 .16-.032.222-.097a.322.322 0 00.094-.233.323.323 0 00-.092-.232.298.298 0 00-.224-.094zm.28 4.122v-2.544h.397v-.448h-.909v2.992h.512zm-1.678-1.503c0 .75-.256 1.126-.768 1.126-.24 0-.427-.1-.562-.302-.136-.2-.204-.475-.204-.823 0-.741.255-1.113.766-1.113.233 0 .42.1.56.296.14.198.209.47.209.816zm.54 0c0-.461-.12-.834-.36-1.119-.24-.284-.555-.426-.948-.426-.413 0-.735.137-.963.41-.228.273-.343.65-.343 1.135 0 .482.117.863.352 1.141.233.28.552.418.954.418.412 0 .733-.14.963-.421.23-.282.345-.66.345-1.138zm-4.93 1.503v-1.74c0-.318.046-.541.138-.67.093-.127.248-.19.465-.19a.74.74 0 01.367.109.825.825 0 01.295.268v2.223h.512v-2.992h-.351l-.162.386c-.169-.294-.445-.441-.828-.441-.633 0-.95.399-.95 1.195v1.852h.514zm-2.825-1.468c.162-.039.275-.056.34-.056.26 0 .47.068.634.206a.621.621 0 01.245.489c0 .311-.177.467-.531.467-.259 0-.49-.128-.689-.383v-.724zm-.049 1.125c.205.266.52.399.942.399a.795.795 0 00.59-.255.873.873 0 00.249-.636c0-.303-.128-.56-.384-.77-.256-.209-.584-.314-.981-.314-.108 0-.23.025-.367.073 0-.485.209-.727.626-.727.32 0 .566.09.739.269l.216-.445a1.263 1.263 0 00-.403-.211 1.528 1.528 0 00-.492-.088c-.42 0-.724.099-.913.296-.19.198-.286.511-.286.942v1.072c0 .263-.075.438-.226.526v.265c.209 0 .365-.031.468-.092a.519.519 0 00.222-.304zm-1.311-.503V72.06h-.512v3.282c0 .16-.045.287-.134.38a.464.464 0 01-.349.138v.474c.664 0 .995-.3.995-.902zm-5.453-3.095l.18.478c.173-.13.445-.197.815-.197.347 0 .625.155.835.465.21.308.315.707.315 1.195 0 .466-.108.843-.323 1.133-.215.29-.492.435-.831.435-.372 0-.656-.136-.856-.409l-.297.428c.313.322.716.483 1.21.483.515 0 .921-.193 1.218-.578.297-.385.446-.894.446-1.525 0-.61-.16-1.118-.476-1.523-.316-.404-.725-.606-1.227-.606-.43 0-.766.074-1.01.22zm-1.932 1.341c.229 0 .42.076.575.228a.84.84 0 01.25.542h-1.599c0-.213.066-.392.195-.536.142-.156.335-.234.58-.234zm-1.243 1.156h2.082c0 .35-.092.62-.277.808a.858.858 0 01-.632.245c-.293 0-.537-.088-.733-.264l-.216.382c.079.082.2.153.364.212.205.079.434.118.685.118.363 0 .672-.128.925-.383.282-.281.424-.66.424-1.134 0-.493-.145-.889-.434-1.188a1.24 1.24 0 00-.92-.399c-.412 0-.735.12-.969.36-.226.231-.34.537-.34.92 0 .116.014.224.041.323zm-2.357 1.444v-1.74c0-.318.046-.541.138-.67.093-.127.248-.19.465-.19a.74.74 0 01.367.109.825.825 0 01.295.268v2.223h.512v-2.992h-.351l-.162.386c-.169-.294-.445-.441-.828-.441-.633 0-.95.399-.95 1.195v1.852h.514zm-1.425-2.572h.335v-.42h-.335v-.625l-.512-.204v.83H65.2v.419h.793v1.486c0 .25-.04.43-.123.537-.082.105-.214.159-.395.159a.925.925 0 01-.407-.104l-.076.466c.212.056.445.084.699.084a.746.746 0 00.578-.264.963.963 0 00.236-.666v-1.698zm-3.197-.028c.229 0 .42.076.575.228a.84.84 0 01.25.542h-1.598c0-.213.065-.392.194-.536.142-.156.335-.234.58-.234zm-1.243 1.156h2.082c0 .35-.092.62-.277.808a.858.858 0 01-.63.245 1.06 1.06 0 01-.735-.264l-.216.382c.079.082.2.153.364.212.206.079.434.118.685.118.364 0 .672-.128.926-.383.282-.281.423-.66.423-1.134 0-.493-.145-.889-.434-1.188a1.24 1.24 0 00-.92-.399c-.412 0-.735.12-.968.36-.227.231-.34.537-.34.92 0 .116.013.224.04.323zm-2.15-1.036a.573.573 0 01.338-.12c.181 0 .34.086.476.26a.987.987 0 01.203.626v1.715h.512v-2.993h-.512v.478c-.187-.355-.465-.533-.833-.533a2.24 2.24 0 00-.397.05l.213.517zm-3.441-1.263a.867.867 0 01.292-.055.48.48 0 01.386.184.708.708 0 01.153.467l-.014.156h-.588v.447h.588v2.545h.513v-2.545h.42v-.447h-.42c0-.382-.09-.682-.273-.9a.89.89 0 00-.72-.327c-.149 0-.309.028-.48.084l.143.391zm-.831 2.24c0 .75-.256 1.126-.769 1.126a.64.64 0 01-.562-.302c-.136-.2-.204-.475-.204-.823 0-.741.256-1.113.766-1.113.234 0 .42.1.56.296.14.198.21.47.21.816zm.54 0c0-.461-.12-.834-.36-1.119-.24-.284-.556-.426-.949-.426-.413 0-.735.137-.963.41-.228.273-.342.65-.342 1.135 0 .482.116.863.35 1.141.234.28.553.418.955.418.412 0 .733-.14.964-.421.23-.282.345-.66.345-1.138zm-4.723-.977a.573.573 0 01.337-.12c.18 0 .34.086.476.26a.988.988 0 01.204.626v1.715h.511v-2.993h-.511v.478c-.188-.355-.465-.533-.834-.533a2.25 2.25 0 00-.397.05l.213.517zm-1.742 2.293l-.197-.514c-.101.077-.226.14-.377.191-.15.052-.284.077-.403.077a.711.711 0 01-.507-.178.597.597 0 01-.192-.455c0-.138.036-.266.107-.384.071-.119.25-.248.535-.388l.32-.154c.269-.13.458-.285.564-.463.107-.178.16-.394.16-.645 0-.306-.104-.56-.312-.76-.209-.2-.477-.302-.804-.302-.438 0-.741.074-.912.221l.159.486c.072-.054.182-.106.329-.157.148-.05.284-.075.41-.075.184 0 .328.054.433.163a.57.57 0 01.158.416c0 .105-.02.2-.056.285a.597.597 0 01-.159.214 2.312 2.312 0 01-.413.243l-.324.16c-.27.132-.46.29-.568.474-.109.183-.163.417-.163.7 0 .307.119.567.357.781.239.214.558.322.957.322.35 0 .649-.086.898-.258zm-3.146-1.316c0 .75-.256 1.126-.769 1.126a.641.641 0 01-.562-.302c-.136-.2-.204-.475-.204-.823 0-.741.256-1.113.767-1.113.233 0 .42.1.56.296.139.198.208.47.208.816zm.54 0c0-.461-.12-.834-.36-1.119-.24-.284-.556-.426-.948-.426-.414 0-.735.137-.964.41-.228.273-.342.65-.342 1.135 0 .482.117.863.351 1.141.234.28.552.418.955.418.412 0 .732-.14.963-.421.23-.282.345-.66.345-1.138zM41.78 73.53l.253.374a.752.752 0 01.276-.154 1.14 1.14 0 01.39-.072c.279 0 .5.1.663.303.164.202.246.479.246.83 0 .35-.083.618-.25.8-.168.184-.4.276-.697.276-.23 0-.462-.092-.696-.276l-.202.446c.275.185.616.277 1.022.277.394 0 .72-.136.976-.41.258-.274.387-.645.387-1.112 0-.477-.134-.86-.401-1.148-.267-.29-.633-.433-1.097-.433-.149 0-.311.032-.486.097a1.369 1.369 0 00-.385.202zm-1.086-1.374a.301.301 0 00-.225.096.32.32 0 00-.093.23.326.326 0 00.318.33.296.296 0 00.223-.097.322.322 0 00.093-.233.323.323 0 00-.092-.232.299.299 0 00-.224-.094zm.281 4.122v-2.544h.397v-.448h-.91v2.992h.513zm-2.911-1.468c.163-.039.276-.056.34-.056.26 0 .471.068.634.206a.624.624 0 01.245.489c0 .311-.176.467-.53.467-.26 0-.49-.128-.69-.383v-.724h.001zm-.048 1.125c.205.266.519.399.941.399a.795.795 0 00.59-.255.873.873 0 00.25-.636c0-.303-.128-.56-.385-.77-.256-.209-.583-.314-.98-.314-.108 0-.23.025-.368.073 0-.485.209-.727.626-.727.32 0 .567.09.74.269l.216-.445a1.263 1.263 0 00-.404-.211 1.528 1.528 0 00-.492-.088c-.42 0-.724.099-.913.296-.19.198-.285.511-.285.942v1.072c0 .263-.076.438-.226.526v.265c.208 0 .364-.031.468-.092a.517.517 0 00.222-.304zm-1.311-.503V72.06h-.512v3.282c0 .16-.045.287-.134.38a.464.464 0 01-.35.138v.474c.665 0 .996-.3.996-.902zm-2.753.659l-.197-.514c-.101.077-.226.14-.377.191a1.25 1.25 0 01-.403.077.711.711 0 01-.507-.178.597.597 0 01-.192-.455c0-.138.036-.266.107-.384.071-.119.25-.248.535-.388l.32-.154c.269-.13.458-.285.564-.463.106-.178.16-.394.16-.645 0-.306-.104-.56-.312-.76-.209-.2-.477-.302-.804-.302-.438 0-.741.074-.912.221l.159.486c.072-.054.182-.106.329-.157.148-.05.284-.075.41-.075.184 0 .328.054.433.163a.57.57 0 01.158.416c0 .105-.02.2-.056.285a.597.597 0 01-.159.214 2.308 2.308 0 01-.413.243l-.324.16c-.27.132-.46.29-.568.474-.109.183-.164.417-.164.7 0 .307.12.567.358.781.239.214.557.322.957.322.35 0 .649-.086.898-.258zm-2.978-2.385h.335v-.42h-.335v-.625l-.513-.204v.83h-.793v.419h.793v1.486c0 .25-.04.43-.122.537-.082.105-.214.159-.396.159a.925.925 0 01-.407-.104l-.075.466c.212.056.445.084.698.084a.746.746 0 00.579-.264.963.963 0 00.236-.666v-1.698zm-2.493-.42v1.908c0 .462-.193.693-.58.693a.774.774 0 01-.463-.15.72.72 0 01-.279-.35v-2.1h-.512v2.991h.512v-.413c.058.117.174.225.347.322.174.098.344.147.508.147.317 0 .56-.094.728-.282.168-.188.252-.455.252-.802v-1.963h-.513zm-4.364.694a.601.601 0 01.53-.302c.277 0 .499.106.669.318.17.213.255.482.255.81 0 .721-.317 1.081-.95 1.081a.708.708 0 01-.291-.08c-.113-.053-.185-.11-.213-.168v-1.66zm0 2.296v-.221c.177.184.437.276.776.276.362 0 .656-.133.88-.401.225-.27.337-.627.337-1.074 0-.449-.13-.832-.388-1.149-.259-.317-.568-.476-.925-.476-.299 0-.525.072-.68.218V72.06h-.512v4.215h.512zm-1.776-4.12a.301.301 0 00-.225.096.32.32 0 00-.092.23.326.326 0 00.317.33.296.296 0 00.223-.097.322.322 0 00.094-.233.323.323 0 00-.092-.232.298.298 0 00-.224-.094zm.281 4.122v-2.544h.397v-.448h-.91v2.992h.513zm-2.517-2.6a.79.79 0 01.575.228.84.84 0 01.25.542h-1.599c0-.213.066-.392.195-.536.142-.156.335-.234.58-.234zm-1.243 1.156h2.082c0 .35-.092.62-.277.808a.858.858 0 01-.632.245c-.293 0-.537-.088-.733-.264l-.216.382c.079.082.2.153.364.212.206.079.434.118.685.118.363 0 .672-.128.925-.383.282-.281.424-.66.424-1.134 0-.493-.145-.889-.434-1.188a1.24 1.24 0 00-.92-.399c-.412 0-.735.12-.969.36-.226.231-.34.537-.34.92 0 .116.014.224.041.323zM18.47 76.1l-.18-.503c-.286.194-.516.29-.69.29-.317 0-.475-.138-.475-.413 0-.198.153-.367.459-.509.235-.111.394-.196.475-.254.082-.058.153-.123.213-.197a.775.775 0 00.18-.501.697.697 0 00-.26-.576c-.172-.138-.398-.206-.676-.206-.21 0-.476.068-.795.206l.145.491c.203-.167.408-.25.612-.25a.52.52 0 01.309.089c.083.06.126.135.126.227 0 .19-.106.336-.316.435l-.367.173c-.224.106-.389.227-.49.363a.825.825 0 00-.155.511c0 .269.091.479.272.63.182.152.434.228.757.228.303 0 .589-.078.857-.234zm-4.7-3.877v.186c.287.427.43 1.051.43 1.87 0 .975-.143 1.632-.43 1.973v.235c.293-.21.518-.512.679-.906.16-.394.24-.83.24-1.305 0-.407-.09-.817-.273-1.232-.184-.414-.398-.688-.645-.82zm-3.248 4.111l2.042-2.992v2.936h.512v-4.092h-.215l-1.989 2.83v-2.83h-.512v4.148h.162zm-3.494-3.997l.181.478c.173-.13.444-.197.815-.197.347 0 .625.155.835.465.21.308.314.707.314 1.195 0 .466-.107.843-.323 1.133-.214.29-.492.435-.831.435-.371 0-.656-.136-.855-.409l-.297.428c.312.322.716.483 1.209.483.516 0 .921-.193 1.218-.578.297-.385.446-.894.446-1.525 0-.61-.159-1.118-.475-1.523-.316-.404-.726-.606-1.227-.606-.43 0-.767.074-1.01.22zm-.604 3.754l-.197-.514c-.1.077-.226.14-.376.191-.15.052-.284.077-.404.077a.712.712 0 01-.506-.178.597.597 0 01-.192-.455c0-.138.036-.266.107-.384.07-.119.25-.248.535-.388l.319-.154c.27-.13.458-.285.565-.463.106-.178.16-.394.16-.645 0-.306-.105-.56-.313-.76-.208-.2-.477-.302-.804-.302-.437 0-.74.074-.912.221l.16.486c.071-.054.181-.106.329-.157.148-.05.284-.075.41-.075.183 0 .328.054.433.163a.57.57 0 01.158.416c0 .105-.02.2-.057.285a.597.597 0 01-.158.214 2.276 2.276 0 01-.414.243l-.323.16c-.27.132-.46.29-.569.474-.108.183-.163.417-.163.7 0 .307.12.567.358.781.238.214.557.322.956.322.35 0 .65-.086.898-.258zm-2.657 0l-.197-.514c-.1.077-.226.14-.376.191-.15.052-.284.077-.403.077a.712.712 0 01-.507-.178.597.597 0 01-.192-.455c0-.138.036-.266.107-.384.07-.119.25-.248.535-.388l.319-.154c.27-.13.458-.285.565-.463.106-.178.16-.394.16-.645 0-.306-.104-.56-.313-.76-.208-.2-.476-.302-.804-.302-.437 0-.74.074-.911.221l.159.486c.071-.054.181-.106.329-.157.148-.05.284-.075.41-.075.183 0 .328.054.433.163a.57.57 0 01.158.416c0 .105-.02.2-.057.285a.597.597 0 01-.158.214 2.31 2.31 0 01-.413.243l-.324.16c-.27.132-.46.29-.569.474-.108.183-.163.417-.163.7 0 .307.12.567.358.781.238.214.557.322.956.322.35 0 .65-.086.898-.258zm-2.847.396v-.235c-.287-.341-.43-.998-.43-1.972 0-.82.143-1.444.43-1.871v-.186c-.248.133-.463.407-.645.821A3.023 3.023 0 000 74.275c0 .477.08.912.241 1.306.16.394.386.695.678.906z" fill="#C7C6C8"/></svg>