<svg width="9" height="9" fill="none" xmlns="http://www.w3.org/2000/svg"><path fill-rule="evenodd" clip-rule="evenodd" d="M3.657 2.063c0 .878-.716 1.593-1.594 1.593A1.596 1.596 0 01.469 2.062 1.595 1.595 0 012.063.47c.878 0 1.594.715 1.594 1.594zm-.563 0c0-.569-.463-1.032-1.031-1.032a1.033 1.033 0 000 2.063c.568 0 1.031-.463 1.031-1.032z" fill="#384250"/><path d="M7.443 8.531h.065c.27-.007.504-.013.64-.232l.005-.007c.13-.223.02-.432-.133-.722l-.008-.015c-.125-.235-.247-.559-.131-.782.386-.58.6-1.15.635-1.696a8.22 8.22 0 000-.98C8.406 2.37 7.038.984 5.333.87A6.807 6.807 0 004.3.856a.281.281 0 10.026.562 6.28 6.28 0 01.97.014c1.424.095 2.567 1.255 2.659 2.7.018.296.018.612 0 .91-.03.447-.214.928-.55 1.429l-.009.014-.003.005c-.198.357-.157.804.121 1.328l.007.012.07.135a7.33 7.33 0 01-.089.002h-.008c-.345.008-.61-.069-.858-.25-.182-.134-.273-.2-.395-.216-.12-.015-.22.027-.458.125h-.001l-.016.007c-.138.057-.31.096-.47.107-.52.034-1.069.034-1.59 0-1.425-.095-2.568-1.255-2.66-2.7a7.677 7.677 0 010-.91.281.281 0 00-.561-.034 8.01 8.01 0 000 .98C.595 6.8 1.963 8.187 3.668 8.3c.546.037 1.122.037 1.665 0 .222-.014.452-.067.647-.147l.017-.007a5.56 5.56 0 01.175-.071c.035.024.083.06.13.094.335.245.699.36 1.141.36v.001z" fill="#384250"/><path d="M3 5.063a.377.377 0 00.377-.375.374.374 0 00-.373-.375H3a.375.375 0 000 .75zm1.5 0a.375.375 0 100-.75.375.375 0 000 .75zm1.497 0a.377.377 0 00.377-.375A.374.374 0 006 4.313h-.003a.375.375 0 000 .75z" fill="#384250"/></svg>