<svg width="197" height="98" fill="none" xmlns="http://www.w3.org/2000/svg"><path d="M136.946 41.496c-6.118-.036-11.111 4.873-11.146 10.96-.036 6.087 4.898 11.055 11.016 11.09 6.118.035 11.11-4.873 11.146-10.96v-.065c-.012-6.058-4.928-10.978-11.016-11.025zm0 17.03c-3.317 0-6.006-2.676-6.006-5.976s2.689-5.975 6.006-5.975h.006c3.316 0 6.005 2.675 6.005 5.975a6.003 6.003 0 01-6.011 5.975zM96.377 41.248a18.94 18.94 0 00-6.906 1.303 10.011 10.011 0 00-5.419-1.303 26.777 26.777 0 00-8.777 1.426l-.557.189V63.11h5.538V46.516c1-.347 2.055-.518 3.115-.5 2.736 0 3.553.872 3.553 3.718V63.11h5.597V49.362a11.219 11.219 0 00-.249-2.81 9.097 9.097 0 012.962-.59c2.612 0 3.796 1.179 3.796 3.719v13.376h5.538V49.303c0-2.728-.433-4.336-1.676-5.698-1.375-1.49-3.678-2.357-6.515-2.357zm22.203 17.495c-3.689 0-5.81-2.274-5.81-6.258 0-4.077 2.144-6.416 5.864-6.416a6.516 6.516 0 014.199 1.372l2.369-3.995a8.895 8.895 0 00-3.293-1.65 17.215 17.215 0 00-3.554-.495c-6.663 0-11.128 4.597-11.128 11.426 0 6.57 4.234 10.813 10.808 10.813 0 0 4.401.189 7.356-2.534l-2.754-3.535a6.744 6.744 0 01-4.039 1.26M46.367 41.437c-7.906 0-11.578 3.47-11.578 10.836V63.11h5.662V52.214c0-3.718 2.12-6.01 5.419-6.01 1.072.006 2.138.153 3.174.436l1.303-4.89a31.064 31.064 0 00-3.98-.313zm25.112 10.218V63.11h-7.593c-5.23 0-7.528-.371-10.27-2.169-2.369-1.608-3.672-4.643-3.672-8.609 0-5.444 3.613-10.96 11.579-10.96 6.473 0 9.956 3.595 9.956 10.283zm-5.538.589c0-4.125-1.617-6.193-4.856-6.193-3.24 0-5.414 2.445-5.414 6.099 0 4.395 2.115 6.317 6.847 6.317h3.423v-6.223zm-34.232-.589V63.11h-7.533c-5.23 0-7.528-.371-10.27-2.169-2.369-1.608-3.672-4.643-3.672-8.609 0-5.444 3.613-10.96 11.579-10.96 6.473 0 9.896 3.595 9.896 10.283zm-5.727.589c0-4.213-1.492-6.193-4.791-6.193-3.3 0-5.42 2.416-5.42 6.07 0 4.395 2.12 6.316 6.847 6.316h3.364v-6.193z" fill="#5F6369"/><mask id="a" style="mask-type:luminance" maskUnits="userSpaceOnUse" x="153" y="34" width="30" height="30"><path d="M182.596 34.454h-29.038v28.892h29.038V34.454z" fill="#fff"/></mask><g mask="url(#a)"><path d="M139.161 47.023l30.797-26.906 27.036 30.648-30.797 26.9-27.036-30.642z" fill="url(#paint0_radial_49_410)"/></g><path d="M169.579 46.552a.875.875 0 01.533.807c-.059.283-.367.377-.723.212a.862.862 0 01-.527-.825c.059-.277.373-.36.717-.194zm1.024-5.533c.279.147.474.394.456.589-.017.194-.278.206-.592.059-.314-.148-.485-.407-.456-.59.03-.182.284-.194.592-.047m.095-.565c.231.123.397.33.379.471-.018.141-.225.16-.468.035-.242-.123-.402-.336-.379-.477.024-.141.231-.153.468 0m.089-.578c.213.118.367.301.355.43-.011.13-.213.136-.432 0-.219-.135-.379-.312-.355-.435.023-.124.213-.136.432.005zm.083-.536c.201.106.343.277.332.395-.012.118-.19.118-.403 0-.213-.118-.344-.289-.326-.4.018-.112.196-.112.397 0m.083-.484c.183.1.32.26.302.36-.018.1-.172.1-.361 0-.19-.1-.326-.265-.326-.36 0-.094.178-.1.367 0m.089-.453c.172.094.296.235.284.33-.012.094-.16.088-.337 0-.178-.089-.296-.242-.285-.33.012-.089.16-.089.338 0zm.071-.431c.154.089.272.2.261.295-.012.094-.148.077-.308 0s-.279-.206-.267-.306c.012-.1.148-.071.314 0m.065-.425c.136.077.237.171.231.254-.006.082-.13.059-.266 0-.137-.06-.243-.177-.231-.26.011-.082.13-.053.266 0m.065-.406c.131.07.219.159.213.23-.005.07-.118.053-.242 0-.125-.053-.219-.16-.214-.236.006-.077.119-.047.243 0m.065-.401c.107.065.184.136.178.2-.006.065-.095.036-.207 0-.113-.035-.19-.135-.184-.2.006-.065.101-.035.213 0zm.06-.382c.094.058.166.123.16.176-.006.053-.083 0-.184 0-.101 0-.166-.118-.16-.17.006-.054.089-.036.184-.007zm-2.132 12.156a.721.721 0 01-.439-.702c.054-.247.314-.324.593-.182a.714.714 0 01.432.683c-.048.254-.308.336-.586.2zm-.226 1.184a.716.716 0 01-.426-.701c.059-.254.314-.336.592-.2a.695.695 0 01.421.683c-.048.26-.302.348-.592.218m-.237 1.232a.684.684 0 01-.409-.696c.059-.253.308-.347.592-.224a.707.707 0 01.409.69c-.053.26-.302.36-.592.23zm-.273 1.361a.686.686 0 01-.391-.701.389.389 0 01.456-.295.4.4 0 01.137.059c.26.124.42.395.39.683a.386.386 0 01-.592.254zm-.278 1.355a.589.589 0 01-.332-.625.336.336 0 01.391-.27c.042.005.077.023.113.04a.59.59 0 01.337.59.343.343 0 01-.509.242m-.332 1.667a.597.597 0 01-.32-.624.341.341 0 01.391-.283.36.36 0 01.113.035.583.583 0 01.314.59.35.35 0 01-.498.264m-.373 1.792a.519.519 0 01-.278-.59.312.312 0 01.355-.276.446.446 0 01.095.023.519.519 0 01.278.59.319.319 0 01-.343.294.244.244 0 01-.107-.03m-.373 1.763a.436.436 0 01-.225-.501.291.291 0 01.314-.265c.029 0 .053.005.077.017a.44.44 0 01.231.495c-.054.212-.219.324-.397.254zm3.678-11.603a.72.72 0 01.426.648c-.035.236-.272.307-.55.171a.73.73 0 01-.433-.66c.042-.224.279-.295.557-.159zm1.202.483c.32.153.527.466.545.82 0 .294-.314.394-.657.223a.961.961 0 01-.551-.837c.041-.288.326-.37.663-.206zm8.345-.418c-.136-.089-.231-.06-.219.059a.72.72 0 00.278.383c.142.082.231.059.213-.071a.596.596 0 00-.272-.371zm-.971-.666c-.184-.106-.308-.07-.296.082.053.2.183.372.361.478.183.112.308.076.29-.083a.828.828 0 00-.355-.477zm-2.713 9.01c-.231-.142-.414-.041-.42.235a.99.99 0 00.42.767c.237.147.409.047.415-.242a1.003 1.003 0 00-.415-.76zm-1.155-2.281c-.272-.153-.485-.047-.503.242.018.336.195.642.48.819.272.159.485.047.491-.254a1.016 1.016 0 00-.468-.807zm-1.214-1.968c-.272-.147-.485-.053-.509.212a.94.94 0 00.456.755c.278.141.491.047.509-.23a.91.91 0 00-.456-.737zm-.764-8.09c-.243-.13-.438-.1-.456.064a.744.744 0 00.421.542c.248.13.444.095.456-.076a.741.741 0 00-.421-.53zm4.981 3.583c-.19-.107-.326-.071-.314.088a.781.781 0 00.367.495c.19.117.32.076.308-.089a.784.784 0 00-.361-.495zm-.983-.584c-.202-.118-.344-.083-.338.082a.768.768 0 00.379.513c.208.118.35.077.338-.094a.757.757 0 00-.379-.501zm-1.955-.354c-.236-.123-.414-.082-.42.106a.814.814 0 00.426.59c.237.13.421.082.421-.112a.802.802 0 00-.427-.59m.989-.236c-.225-.123-.39-.088-.39.095a.821.821 0 00.414.554c.231.124.397.083.391-.1a.797.797 0 00-.415-.548zm-1.036-.594c-.249-.136-.444-.095-.45.1a.87.87 0 00.456.59c.261.135.456.087.45-.107a.853.853 0 00-.456-.59m-.995.254c-.261-.141-.468-.094-.486.106a.86.86 0 00.468.63c.267.142.474.09.48-.117a.837.837 0 00-.462-.59m-1.404 4.096c-.272-.142-.503-.059-.533.194.012.307.19.584.462.725.285.142.51.06.533-.206a.835.835 0 00-.462-.713zm.083-1.073c-.296-.147-.539-.07-.592.189a.905.905 0 00.498.766c.308.16.55.07.592-.2a.917.917 0 00-.504-.755m.083-1.019c-.325-.165-.592-.094-.592.177a.971.971 0 00.545.807c.332.171.592.083.592-.194a.99.99 0 00-.539-.79m.059-.96c-.313-.16-.592-.1-.592.153.03.33.231.619.527.766.32.165.593.088.593-.171a.937.937 0 00-.528-.748zm.048-.831c-.278-.142-.498-.095-.521.118.035.282.207.53.468.654.278.147.503.088.515-.13a.81.81 0 00-.462-.642zm.059-.831c-.296-.153-.533-.106-.557.112a.881.881 0 00.51.695c.302.153.539.1.556-.13a.908.908 0 00-.509-.677zm.071-.784c-.29-.153-.521-.112-.545.094.048.29.231.53.498.654.296.154.527.113.539-.106a.86.86 0 00-.492-.642zm-1.895-2.357c-.207-.106-.373-.088-.397.041-.024.13.13.313.338.425.207.111.373.082.391-.048.017-.13-.131-.312-.332-.418zm.041-.601c-.189-.094-.343-.083-.361 0-.018.082.119.277.308.377.19.1.344.083.355 0 .012-.082-.118-.277-.302-.377zm.03-.566c-.16-.088-.296-.076-.314 0-.018.077.107.242.273.33.165.089.29.077.307 0 .018-.076-.106-.23-.266-.318m.047-.56c-.148-.076-.266-.088-.278 0-.012.089.095.213.237.29.142.076.266.082.284 0 .018-.083-.1-.207-.243-.29zm0-.512c-.136-.071-.242-.083-.26 0-.018.082.095.194.231.265.136.07.243.082.254 0 .012-.083-.094-.189-.225-.265zm.03-.525c-.124-.065-.219-.076-.231 0-.012.077.083.165.201.23.119.065.22.077.225 0 .006-.077-.082-.159-.195-.224m.018-.447c-.107-.06-.196-.077-.208 0-.011.076.077.152.184.211.107.06.201.077.213 0 .012-.076-.077-.147-.189-.206m.023-.477c-.1-.053-.177-.065-.183 0-.006.065.065.124.166.183.1.058.171.064.183 0 .012-.065-.071-.124-.166-.183zm-1.255 11.054c.213.1.403.036.432-.147a.59.59 0 00-.331-.518c-.214-.1-.397-.042-.433.141 0 .224.13.424.332.524zm-.213 1.191c.207.094.385 0 .414-.16a.544.544 0 00-.314-.506c-.201-.094-.379 0-.414.153a.58.58 0 00.314.513zm-.285 1.22c.208.094.379 0 .415-.171a.54.54 0 00-.308-.513c-.201-.094-.379 0-.415.165a.55.55 0 00.308.519zm-.26 1.331a.254.254 0 00.355-.088.276.276 0 00.036-.089.524.524 0 00-.285-.495.263.263 0 00-.355.071.267.267 0 00-.035.1.512.512 0 00.284.501zm-.314 1.326c.112.07.266.03.332-.082a.307.307 0 00.035-.1.486.486 0 00-.26-.472.237.237 0 00-.332.083.305.305 0 00-.036.094c-.023.2.083.389.261.477zm-.367 1.58a.236.236 0 00.349-.19.46.46 0 00-.243-.453.23.23 0 00-.319.094.258.258 0 00-.03.089.45.45 0 00.243.46zm5.377-11.09c-.243-.13-.432-.095-.444.088.036.26.196.477.432.59.249.135.439.093.445-.095a.785.785 0 00-.433-.59m-.047 1.668c-.219-.112-.397-.07-.409.106.036.23.178.43.385.536.225.118.397.065.403-.112a.737.737 0 00-.379-.53zm-.024.889c-.248-.129-.444-.076-.462.13.03.272.196.507.439.631.254.13.45.07.462-.141a.833.833 0 00-.439-.59m-.124 3.023c-.243-.13-.438-.053-.456.177.012.277.172.53.42.666.249.13.445.053.456-.183a.815.815 0 00-.42-.66zm4.116-4.136c-.207-.118-.349-.083-.338.082a.815.815 0 00.397.525c.208.117.35.082.338-.089a.857.857 0 00-.397-.518zm-3.009 8.797c-.225-.123-.402-.035-.414.224a.896.896 0 00.391.707c.231.13.408 0 .42-.23a.891.891 0 00-.397-.7zm1.262 2.34c-.219-.136-.385-.036-.391.235.012.29.154.56.385.737.219.136.379.035.385-.242a.964.964 0 00-.379-.73zm-2.488-4.502c-.248-.136-.456-.041-.473.218.006.289.16.56.402.713.255.135.456.035.474-.23a.871.871 0 00-.42-.707m-1.143-1.916c-.249-.123-.45-.046-.48.19a.77.77 0 00.409.665c.248.13.456.041.473-.2a.766.766 0 00-.402-.654zm-1.132-1.861c-.272-.136-.497-.06-.533.182 0 .29.166.56.433.684.278.135.509.053.533-.195a.758.758 0 00-.433-.671zm2.458.241c-.225-.123-.408-.059-.426.148a.748.748 0 00.397.589c.231.124.414.059.42-.153a.753.753 0 00-.391-.59m-.782-6.487c-.213-.112-.384-.095-.396.047a.652.652 0 00.367.465c.219.118.385.089.397-.053a.658.658 0 00-.368-.46zm3.898 2.899c-.172-.094-.291-.065-.285.065.042.176.16.33.32.418.172.094.29.065.284-.07a.662.662 0 00-.319-.413zm-1.896 2.263c-.189-.1-.337-.06-.343.106a.641.641 0 00.343.495c.196.106.338.058.338-.112a.665.665 0 00-.338-.49zm-.089 4.295c-.242-.135-.426-.053-.438.195a.87.87 0 00.415.69c.243.135.426.052.432-.201a.87.87 0 00-.409-.684zm-1.089-3.966c-.219-.117-.397-.064-.415.13.018.248.16.472.385.59.231.117.403.058.415-.142a.735.735 0 00-.385-.59m2.286 1.291c-.213-.123-.379-.065-.379.142a.814.814 0 00.397.589c.213.13.379.065.373-.142a.836.836 0 00-.391-.589zm.93 10.383c-.178-.124-.308 0-.308.212a.96.96 0 00.314.672c.177.124.308 0 .308-.218a.987.987 0 00-.314-.666zm-1.019-13.223c-.201-.112-.349-.077-.349.088a.703.703 0 00.367.507c.201.112.349.07.343-.1a.706.706 0 00-.361-.495zm-4.027-4.437c-.196-.1-.356-.089-.367.041-.012.13.13.306.325.413.196.106.356.082.367-.048.012-.13-.13-.306-.325-.406zm1.972.406c-.19-.094-.332-.082-.338.042a.596.596 0 00.332.4c.19.1.332.083.332-.04a.588.588 0 00-.326-.402zm1.99 2.475c-.154-.082-.273-.059-.267.06a.558.558 0 00.285.365c.154.088.272.064.266-.06a.554.554 0 00-.284-.365zm-1.001 3.772c-.195-.106-.349-.053-.355.123a.709.709 0 00.349.525c.201.112.355.053.355-.13a.673.673 0 00-.349-.518zm1.096-.36c-.172-.094-.302-.059-.302.1a.632.632 0 00.313.448c.172.1.297.053.297-.1a.66.66 0 00-.308-.448zm1.113 1.644c-.189-.112-.332-.059-.326.124a.809.809 0 00.356.548c.189.118.331.059.319-.13a.766.766 0 00-.349-.542zm1.712-2.557c-.148-.089-.243-.06-.231.07a.59.59 0 00.278.39c.148.088.243.058.231-.071a.622.622 0 00-.278-.39zm-4.91-5.551c-.16-.088-.29-.077-.29 0a.525.525 0 00.29.354c.166.082.29.07.29-.036 0-.106-.124-.253-.29-.342m-.006 1.267c-.178-.094-.308-.076-.314.042a.583.583 0 00.302.383c.178.088.308.07.314-.053a.59.59 0 00-.302-.372zm3.263 14.997c-.195-.136-.349-.041-.349.218a.993.993 0 00.361.725c.201.141.35.047.344-.224a.997.997 0 00-.356-.719zM173.6 42.073c-.172-.088-.302-.076-.314.036a.537.537 0 00.296.36c.172.087.308.07.314-.036a.519.519 0 00-.296-.36zm1.931 4.838c-.172-.094-.296-.059-.302.083.029.176.142.33.302.418.166.094.296.059.302-.082a.594.594 0 00-.302-.419zm-.012-2.404c-.142-.077-.249-.053-.249.047a.46.46 0 00.255.324c.142.083.249.06.249-.047a.474.474 0 00-.255-.324zm-.012 6.476c-.172-.094-.302-.041-.308.13a.624.624 0 00.296.47c.172.095.302.042.308-.129a.589.589 0 00-.296-.471zm1.185 3.277c-.19-.119-.338-.042-.344.176a.794.794 0 00.35.59c.195.117.337.04.343-.183a.775.775 0 00-.349-.584zm-2.174-10.277c-.124-.065-.225-.054-.231.04.024.124.107.23.225.29.131.07.231.052.237-.042a.432.432 0 00-.231-.288zm2.079 14.778c-.154-.1-.272 0-.278.183 0 .212.1.412.266.548.16.1.278 0 .278-.189a.706.706 0 00-.266-.542zm.989-11.538c-.16-.094-.272-.059-.272.077.035.177.148.33.302.418.165.095.278.06.272-.082a.573.573 0 00-.302-.413zm-2.079-4.702c-.148-.077-.254-.07-.254 0s.118.236.266.318c.148.083.255.065.255-.035a.501.501 0 00-.267-.312m5.792 5.462c-.118-.077-.195-.053-.177.053a.586.586 0 00.237.336c.118.077.189.053.177-.059a.556.556 0 00-.237-.33zm-2.487 2.84c-.166-.106-.284-.059-.278.118a.746.746 0 00.319.507c.172.112.291.059.279-.118a.747.747 0 00-.32-.507zm-.515 10.713c-.142-.112-.243 0-.243.195.006.23.101.453.261.624.136.118.242.035.236-.194a.945.945 0 00-.254-.625zm-2.926-5.091c-.172-.094-.308 0-.314.183 0 .218.107.424.29.542.172.1.302 0 .314-.183a.68.68 0 00-.29-.542zm2.304-7.272c-.119-.07-.207-.04-.201.077.023.141.106.26.225.336.118.07.207.035.207-.077a.475.475 0 00-.231-.336zm-2.221-7.218c-.124-.065-.219-.07-.219 0a.4.4 0 00.225.265c.13.07.225.07.219 0a.405.405 0 00-.225-.265zm.888.53c-.1-.053-.177-.053-.177 0 .029.1.1.183.195.224.101.053.178.053.172 0a.344.344 0 00-.19-.224zm-2.221 11.821c-.154-.083-.278 0-.29.147 0 .183.101.354.255.448.154.083.272 0 .284-.153a.516.516 0 00-.249-.442zm-1.243-2.074c-.148-.077-.273 0-.291.13 0 .17.095.33.243.412.154.076.279 0 .29-.13 0-.17-.094-.33-.242-.412zm-1.126-1.921c-.148-.077-.272 0-.296.112 0 .159.095.306.237.383.148.07.279 0 .296-.118a.416.416 0 00-.237-.377zm4.537-8.385c-.113-.06-.19-.065-.19 0 .036.1.113.182.208.23.106.064.189.064.183 0a.368.368 0 00-.201-.23zm.699.017c-.095-.053-.166-.053-.16 0 .024.089.089.16.172.2.094.053.166.053.16 0a.322.322 0 00-.172-.2zm2.884 9.688c-.106-.071-.183-.042-.178.076.024.136.095.26.208.342.112.07.183.035.177-.083a.516.516 0 00-.207-.335zm-.977.253c-.136-.088-.231-.041-.225.106.018.17.112.324.255.424.136.089.231.042.225-.106a.62.62 0 00-.255-.424zm-1.096-.665c-.13-.078-.219-.042-.219.088a.524.524 0 00.237.377c.124.076.213.035.213-.095a.503.503 0 00-.231-.37zm-1.125-.66c-.118-.066-.201-.036-.201.082a.43.43 0 00.207.33c.118.07.207 0 .207-.083a.454.454 0 00-.213-.33zm-1.149-.66c-.118-.066-.207 0-.213.082a.407.407 0 00.213.318c.118.07.207 0 .213-.083a.407.407 0 00-.213-.318zm4.406 2.751c-.112-.077-.183-.041-.177.082a.568.568 0 00.207.36c.107.076.184.041.178-.088a.536.536 0 00-.208-.354zm1.084.813c-.095-.07-.16-.035-.154.077a.552.552 0 00.19.341c.094.077.16.042.148-.076a.56.56 0 00-.184-.342zm-5.525-10.282c-.119-.065-.208-.06-.208 0a.37.37 0 00.219.265c.119.065.208.059.208 0a.37.37 0 00-.219-.265zm-7.179 2.863c-.284-.13-.539-.07-.592.154a.64.64 0 00.415.642c.284.135.545.065.592-.16a.658.658 0 00-.415-.636zm-1.226-.689c-.355-.16-.692-.083-.781.188a.786.786 0 00.509.802c.373.165.705.076.782-.206a.774.774 0 00-.51-.784zm-8.196-8.609c.195.065.284.183.219.277a.49.49 0 01-.468.047c-.201-.065-.296-.183-.225-.277.136-.1.32-.118.474-.047zm1.35.406c.231.083.349.236.272.354-.077.118-.319.13-.556.047-.237-.082-.356-.242-.273-.36a.528.528 0 01.557-.04zm-.509 10.66a.351.351 0 01.248.436c0 .012-.005.018-.005.024a.427.427 0 01-.539.165.344.344 0 01-.255-.419c.006-.017.006-.03.012-.047a.424.424 0 01.539-.159zm1.954-.966a.51.51 0 01.356.624.54.54 0 01-.711.213.519.519 0 01-.361-.63c0-.007 0-.007.005-.013a.543.543 0 01.711-.194zm1.925-.56c.278.094.45.377.397.666a.514.514 0 01-.693.224c-.012-.006-.018-.012-.03-.018a.587.587 0 01-.397-.683.532.532 0 01.723-.189zm3.636-6.187c.261.13.427.347.379.507-.047.159-.29.176-.556.053-.267-.124-.439-.354-.385-.513.053-.16.296-.171.562-.047zm-6.153-1.839c.243.094.373.26.302.39-.071.129-.332.158-.592.064-.261-.094-.385-.26-.302-.395.083-.135.331-.153.592-.059zm1.25.472c.248.106.385.288.319.424-.065.135-.325.165-.592.065-.266-.1-.391-.289-.314-.43.077-.142.332-.154.592-.06m2.073 1.68c.273.124.433.336.368.507-.066.17-.338.194-.593.076-.254-.117-.438-.347-.367-.512.071-.165.344-.195.592-.07zm-.864-1.208c.266.118.414.318.349.471-.065.154-.337.183-.592.071-.255-.112-.427-.33-.356-.483.072-.153.35-.17.622-.059m1.179.519c.284.13.444.353.385.518-.059.165-.344.195-.634.065-.29-.13-.456-.36-.385-.525.071-.164.35-.188.634-.058zm.859 1.196c.296.141.468.383.408.59-.059.205-.349.223-.651.087-.302-.135-.48-.388-.415-.589.065-.2.362-.212.658-.082m-.208 4.873c.279.1.451.377.415.666-.077.236-.373.318-.687.183a.587.587 0 01-.415-.678c.089-.23.385-.307.687-.171zm.314-.984c.296.1.486.389.45.701-.083.248-.396.324-.734.177a.662.662 0 01-.45-.713c.089-.242.403-.307.734-.165zm.279-.961c.349.171.562.483.491.737-.071.253-.42.33-.782.17-.361-.158-.592-.494-.491-.748.101-.253.426-.312.782-.159zm.284-.878c.338.165.545.466.48.702-.066.235-.403.3-.753.141-.349-.16-.556-.471-.479-.713.077-.242.408-.283.752-.13zm.243-.76c.296.142.479.4.42.59-.059.188-.343.247-.651.105-.308-.14-.486-.412-.421-.589.065-.176.35-.235.652-.094m.278-.784c.32.154.515.43.462.637-.053.206-.367.247-.699.1-.331-.148-.533-.442-.462-.648.071-.207.373-.242.699-.089zm.237-.707c.308.153.503.418.45.59-.053.17-.349.23-.669.076-.32-.153-.521-.424-.456-.59.065-.164.361-.217.675-.076zm2.476-.159c.207.106.349.289.325.413-.023.123-.213.141-.426.035-.213-.106-.349-.289-.32-.413.03-.123.213-.141.421-.035zm.165-.566c.19.1.32.26.297.372-.024.111-.19.123-.385 0-.196-.124-.32-.266-.297-.378.024-.111.196-.111.385 0m.166-.495c.16.089.273.224.255.319-.018.094-.16.1-.332 0-.171-.1-.278-.23-.254-.324.023-.095.165-.095.331 0m.125-.531c.142.083.248.195.231.283-.018.089-.148.083-.297 0-.148-.082-.254-.194-.236-.283.017-.088.148-.082.302 0zm.16-.459c.136.076.231.176.219.259-.012.082-.137.07-.273 0s-.237-.177-.219-.26c.018-.082.136-.07.273 0zm.13-.436c.118.064.207.153.195.224-.012.07-.118.058-.243 0-.124-.06-.207-.154-.195-.224.012-.071.118-.06.243 0zm.112-.372c.113.06.19.142.178.207-.012.064-.107.053-.219 0-.113-.053-.195-.148-.184-.213.012-.064.113-.047.225.006zm.113-.377c.101.06.172.124.16.183-.012.059-.095.041-.196 0-.1-.041-.165-.124-.16-.183.006-.059.095-.041.196 0zm-2.594 10.43a.496.496 0 01-.314-.512c.047-.171.249-.23.468-.13a.509.509 0 01.314.5c-.042.183-.243.242-.468.142zm-.237 1.179a.496.496 0 01-.302-.501c.053-.177.243-.236.456-.142.201.083.32.283.296.495-.041.177-.237.242-.45.148zm-.225 1.225a.479.479 0 01-.29-.506c.047-.183.243-.254.45-.16a.486.486 0 01.29.501.305.305 0 01-.379.2l-.071-.035zm-.207 1.332a.448.448 0 01-.267-.483.289.289 0 01.427-.171.454.454 0 01.266.483.284.284 0 01-.426.171zm-.267 1.45a.431.431 0 01-.249-.472.281.281 0 01.403-.17.42.42 0 01.249.459.278.278 0 01-.332.206.334.334 0 01-.071-.023zm-.284 1.65a.406.406 0 01-.225-.454.267.267 0 01.326-.2l.059.017c.171.083.26.265.225.448a.274.274 0 01-.32.212.211.211 0 01-.065-.023zm-.764-14.337c.272.13.438.353.385.513-.054.159-.32.194-.592.07-.273-.123-.445-.36-.385-.524.059-.165.325-.183.592-.06zm-.61 1.449c.249.112.391.319.337.484-.053.165-.296.194-.545.082-.248-.112-.396-.324-.343-.489.053-.165.302-.189.551-.077zm-.279.749c.279.13.445.371.379.59-.065.217-.343.24-.633.111-.29-.13-.45-.377-.385-.59.065-.211.355-.229.639-.105m-1.036 2.763c.255.077.409.33.367.59-.083.212-.361.276-.645.159a.528.528 0 01-.368-.59.479.479 0 01.646-.159c0 .006 0 .006 0 0zm-2.493-7.631c.26.112.396.295.319.425-.077.13-.355.153-.621.047-.267-.106-.403-.289-.32-.424.083-.136.361-.148.622-.048zm-.344 10.548a.49.49 0 01.326.59.509.509 0 01-.675.217.481.481 0 01-.32-.589.512.512 0 01.669-.212m-1.937.79a.459.459 0 01.303.583v.006a.597.597 0 01-.705.242.46.46 0 01-.32-.566l.018-.053c.154-.23.444-.33.704-.23m3.951-1.431a.543.543 0 01.361.636.482.482 0 01-.634.235c-.006-.006-.011-.006-.023-.012a.539.539 0 01-.362-.648.492.492 0 01.664-.206c.006 0 .006.006.012.006m1.853-.542a.56.56 0 01.362.589c-.072.224-.344.306-.593.183a.549.549 0 01-.361-.59c.077-.218.344-.288.622-.17m1.694-.537c.266.1.432.36.408.643-.071.235-.343.312-.633.182a.586.586 0 01-.403-.654c.071-.23.343-.3.628-.17zm-2.417-2.18c.255.118.409.348.344.542-.065.195-.326.242-.592.136-.267-.106-.415-.36-.35-.548.065-.189.338-.236.592-.13m3.098-4.744c.231.118.379.301.343.437-.035.135-.254.147-.491.035-.237-.112-.379-.306-.338-.442.042-.136.261-.142.486 0m-4.72-1.379c.201.088.314.242.26.348-.053.106-.272.123-.485.035-.214-.088-.32-.247-.261-.353.059-.107.278-.118.486-.03zm1.03 3.83c.219.1.35.283.29.43-.059.148-.284.183-.515.089-.231-.094-.355-.289-.296-.436.059-.147.296-.177.521-.083zm-1.611 3.707c.243.03.409.253.373.489a.43.43 0 01-.491.371.441.441 0 01-.208-.088c-.29-.124-.444-.383-.349-.59a.518.518 0 01.675-.176m2.511-2.31c.249.118.397.336.338.512-.059.177-.314.224-.592.112-.279-.112-.403-.335-.344-.512.059-.177.32-.218.598-.112zm-2.606-1.132c.261.106.403.319.332.49-.071.17-.355.223-.628.117-.272-.106-.408-.324-.325-.495.083-.17.355-.218.621-.112zm-4.501 7.484c.16.041.261.206.22.365-.006.018-.012.041-.024.06a.428.428 0 01-.515.182.301.301 0 01-.22-.365c.006-.024.012-.048.024-.065a.435.435 0 01.515-.177zm5.645-9.835c.236.106.367.289.308.43-.06.142-.308.171-.551.071-.243-.1-.379-.295-.314-.436.065-.141.314-.16.557-.065zm5.318.153c.201.107.332.277.308.401-.024.124-.219.13-.426 0-.208-.13-.338-.277-.308-.4.029-.124.219-.13.426 0zm-2.979-2.014c.154.064.255.17.237.252-.018.083-.16.1-.32.042-.16-.06-.261-.171-.237-.254.024-.082.166-.1.32-.04zm-1.676.577c.183.082.284.218.243.324-.042.106-.231.112-.415.035-.184-.077-.29-.224-.243-.324.048-.1.231-.112.415-.035zm-.492 4.243c.231.1.356.288.296.447-.059.16-.296.2-.533.106-.236-.094-.367-.3-.302-.46.066-.158.302-.194.539-.094zm-.906-1.38c.207.083.32.248.261.378s-.273.165-.486.082c-.213-.082-.32-.253-.26-.383.059-.13.278-.16.485-.077zm-1.788.295c.242.094.367.277.296.43a.5.5 0 01-.593.112c-.242-.094-.373-.283-.29-.442a.488.488 0 01.592-.1m-.841-3.919c.19.071.291.195.226.295a.44.44 0 01-.462.059c-.202-.07-.302-.194-.237-.3a.458.458 0 01.473-.054zm5.959-.347c.165.07.278.188.26.27-.018.083-.172.107-.343.042-.172-.065-.285-.189-.261-.271.024-.082.178-.1.344-.041zm.592 1.502c.207.106.331.266.296.383-.036.118-.237.13-.45.03-.213-.1-.332-.265-.29-.383.041-.118.236-.124.444 0m.243-.595c.183.088.296.235.272.341-.024.106-.201.106-.385 0s-.302-.241-.272-.347c.029-.106.207-.1.385.006zm-2.565 2.822c.196.089.302.242.261.366-.042.123-.249.153-.45.07-.202-.082-.308-.253-.261-.377.047-.123.249-.147.45-.059zm.96-2.098c.165.071.26.2.225.29-.036.088-.196.1-.362 0-.165-.101-.254-.201-.219-.295.036-.095.196-.1.356 0m-2.458 5.562c.201.089.308.26.249.407-.06.147-.267.194-.468.112-.202-.083-.314-.26-.255-.407a.358.358 0 01.474-.112zm3.553-5.032c.142.07.225.183.202.265-.024.083-.166.094-.314 0s-.231-.183-.202-.265c.03-.082.166-.094.314 0zm1.499-.731c.16.083.266.218.242.313-.023.094-.165.094-.331 0-.166-.095-.267-.218-.243-.313.024-.094.166-.1.332 0zm-5.704.472c.202.082.308.23.255.341-.053.112-.267.136-.474.06-.207-.077-.308-.23-.249-.342.06-.112.267-.136.468-.06zm-4.365-3.136c.16.048.237.142.178.219a.457.457 0 01-.409.041c-.165-.053-.242-.147-.177-.218a.436.436 0 01.408-.041zm1.706 4.968c.231.083.344.248.267.383a.501.501 0 01-.557.106c-.231-.082-.35-.247-.267-.383a.501.501 0 01.557-.106zm-2.203 9.729a.278.278 0 01.195.342.396.396 0 01-.509.247.282.282 0 01-.189-.353c.005-.024.017-.041.023-.06a.4.4 0 01.48-.176zm-1.422.731a.24.24 0 01.166.3.224.224 0 01-.023.053.378.378 0 01-.433.16.23.23 0 01-.195-.272.275.275 0 01.035-.094.399.399 0 01.439-.16m5.04-2.327a.371.371 0 01.237.472.394.394 0 01-.516.176.36.36 0 01-.237-.46c0-.005.006-.01.006-.017a.39.39 0 01.51-.17zm-1.925.825a.371.371 0 01.237.472.399.399 0 01-.515.182.364.364 0 01-.231-.471v-.006a.385.385 0 01.509-.177zm2.369-9.204c.148.065.231.177.183.271-.047.094-.207.118-.361.059s-.243-.177-.189-.271c.053-.094.207-.112.367-.059zm4.004-4.284c.13.053.213.136.195.206-.018.071-.148.071-.278 0-.131-.07-.22-.135-.196-.206.024-.07.148-.07.279 0zm-2.393 12.021a.343.343 0 01.213.407.309.309 0 01-.409.147c-.006 0-.006-.006-.011-.006a.338.338 0 01-.214-.407.309.309 0 01.409-.147c.006 0 .006.006.012.006zm1.942-.642a.335.335 0 01.219.377.265.265 0 01-.384.124.328.328 0 01-.214-.383.263.263 0 01.356-.13c.006 0 .017.006.023.012zm1.777-.395a.334.334 0 01.213.36c-.035.129-.189.182-.349.111a.348.348 0 01-.213-.365c.041-.13.189-.177.349-.106zm-8.7-6.818c.148.047.225.153.166.242a.358.358 0 01-.379.07c-.154-.047-.231-.147-.172-.235a.383.383 0 01.385-.077zm1.001 1.108c.189.059.278.194.213.312a.413.413 0 01-.456.095c-.189-.065-.278-.2-.213-.319a.4.4 0 01.456-.088zm1.451.636c.16.065.243.189.189.295a.326.326 0 01-.396.083c-.16-.065-.249-.189-.19-.295a.328.328 0 01.397-.083zm1.421.566c.142.059.219.177.178.277a.268.268 0 01-.344.07c-.148-.058-.219-.176-.177-.276.083-.1.225-.13.343-.071zm1.362.572c.137.064.214.182.178.282-.035.1-.183.124-.331.071-.149-.053-.22-.183-.178-.283a.252.252 0 01.331-.07zm3.068-6.694c.125.053.214.13.196.2-.018.07-.13.077-.261 0-.13-.077-.213-.13-.195-.2.018-.071.13-.071.26 0zm-.669-.772c.113.047.19.123.172.182-.018.06-.119.065-.231 0-.113-.064-.196-.123-.178-.182.018-.06.119-.065.237 0zm-.711-.672c.107.041.178.106.16.165-.017.059-.106.059-.207 0-.101-.059-.172-.106-.16-.165.012-.059.107-.059.207 0zm2.156 2.351c.13.07.219.165.202.248-.018.082-.149.076-.285 0-.136-.077-.225-.171-.201-.248.024-.077.148-.077.284 0zm-9.582 3.577c.16.053.231.159.177.253-.106.1-.26.13-.397.083-.159-.053-.231-.16-.171-.254a.395.395 0 01.391-.082zm-1.404-.377c.148.035.219.13.16.218a.388.388 0 01-.379.082c-.154-.041-.219-.135-.16-.218a.402.402 0 01.379-.082z" fill="#fff"/><path d="M167.737 40.659c-.042.16.101.377.338.536-.285-.094-.522-.047-.593.136a.596.596 0 00.273.536c-.243-.041-.433 0-.486.189-.053.188.101.453.373.636-.302-.089-.551 0-.592.183a.588.588 0 00.243.589.408.408 0 00-.486.236c-.03.253.089.5.302.642-.278-.041-.503.047-.592.26a.823.823 0 00.551.836c.237.153.545.13.752-.053a.99.99 0 00.592.678.649.649 0 00.669 0 1.1 1.1 0 00.539.589c.196.13.456.13.652 0 .106.253.296.465.545.589.189.136.45.136.639 0 .107.26.302.466.551.59.367.182.669.088.705-.213a.947.947 0 00-.356-.701c.243.041.415-.053.439-.265a.85.85 0 00-.302-.59c.213 0 .355-.064.373-.247a.897.897 0 00-.421-.695c.273.094.474 0 .498-.189a.807.807 0 00-.326-.59c.219.042.367 0 .385-.2a.861.861 0 00-.42-.63c.236.082.408.035.426-.136a.79.79 0 00-.474-.589c-.249-.13-.456-.123-.527 0a.882.882 0 00-.468-.518c-.237-.124-.438-.124-.527 0a.931.931 0 00-.503-.554c-.273-.136-.51-.136-.593 0a.824.824 0 00-.45-.495c-.296-.148-.556-.136-.592.047.036-.189-.172-.436-.468-.59-.296-.153-.592-.123-.628.054m3.826 5.562a.402.402 0 01.231.336c0 .118-.136.148-.284.077a.404.404 0 01-.231-.336c0-.118.136-.147.284-.077zm-1.143-.548a.343.343 0 01.208.295c0 .1-.137.13-.261.065a.326.326 0 01-.207-.3c0-.095.13-.125.26-.06zm-1.149-.589c.119.047.196.16.196.289 0 .1-.136.13-.273.065a.316.316 0 01-.195-.295c0-.094.136-.124.272-.059zm-1.078-.371c-.029.106-.165.135-.319.07-.154-.064-.249-.218-.22-.33.03-.111.166-.135.32-.064a.335.335 0 01.219.324zm3.471.624a.354.354 0 01.207.29c0 .093-.118.117-.248.058a.337.337 0 01-.202-.294c0-.095.119-.118.243-.054zm-3.494-1.767a.317.317 0 01.195.277c0 .094-.148.117-.278.059-.13-.06-.213-.189-.196-.283.018-.095.148-.112.279-.053zm3.595.901a.334.334 0 01.201.277c0 .089-.112.112-.237.047-.124-.065-.213-.182-.201-.27.012-.09.112-.113.237-.054zm-3.394-1.703c.124.065.207.177.19.265-.018.089-.137.107-.267.048-.13-.06-.213-.183-.189-.272.023-.088.136-.1.266-.04zm3.488.92a.32.32 0 01.196.259c0 .094-.113.106-.231.047a.317.317 0 01-.196-.265c0-.089.107-.1.231-.041zm-3.304-1.674c.124.065.207.17.189.26-.018.088-.136.094-.26.035-.125-.06-.208-.171-.19-.26.018-.088.136-.094.261-.035zm3.352.86a.358.358 0 01.213.277c0 .089-.118.106-.249.041a.358.358 0 01-.213-.276c0-.089.124-.107.249-.042zm-1.019-.506c.119.059.202.159.19.241-.012.083-.113.094-.231.035-.119-.058-.196-.165-.184-.247.012-.083.113-.088.225 0m-1.024-.524c.112.058.195.159.177.241-.018.083-.118.089-.231 0-.112-.088-.201-.165-.189-.241.012-.077.124-.089.243 0zm-1.12-.59c.13.071.219.183.202.271-.018.089-.143.095-.279 0-.136-.094-.225-.182-.201-.27.024-.09.142-.095.278 0z" fill="#fff"/><defs><radialGradient id="paint0_radial_49_410" cx="0" cy="0" r="1" gradientUnits="userSpaceOnUse" gradientTransform="rotate(-41.136 162.527 -152.07) scale(55.4182 55.3812)"><stop stop-color="#7FBF3F"/><stop offset=".29" stop-color="#7FBF3F"/><stop offset=".44" stop-color="#5FB744"/><stop offset=".69" stop-color="#009848"/><stop offset=".7" stop-color="#0062AF"/><stop offset=".9" stop-color="#00A5E6"/><stop offset="1" stop-color="#00ACEC"/></radialGradient></defs></svg>