<svg width="33" height="33" fill="none" xmlns="http://www.w3.org/2000/svg"><path d="M18.878 4.826l2.42 4.84c.33.674 1.21 1.32 1.953 1.444l4.386.729c2.805.467 3.465 2.502 1.444 4.51l-3.41 3.41c-.578.577-.894 1.69-.715 2.488l.976 4.222c.77 3.34-1.004 4.633-3.96 2.887l-4.111-2.434c-.743-.44-1.966-.44-2.723 0l-4.111 2.434c-2.942 1.746-4.73.44-3.96-2.887l.976-4.222c.179-.797-.137-1.91-.715-2.488l-3.41-3.41c-2.007-2.008-1.361-4.043 1.444-4.51l4.386-.73c.729-.123 1.609-.77 1.939-1.443l2.42-4.84c1.32-2.626 3.465-2.626 4.771 0z" stroke="#1B8354" stroke-width="3" stroke-linecap="round" stroke-linejoin="round"/></svg>