<svg width="20" height="20" fill="none" xmlns="http://www.w3.org/2000/svg"><path d="M10.625 7.917a.625.625 0 10-1.25 0v3.333c0 .166.066.325.183.442l1.667 1.667a.625.625 0 10.884-.884l-1.484-1.484V7.917z" fill="#1B8354"/><path fill-rule="evenodd" clip-rule="evenodd" d="M10.625 2.292h1.042a.625.625 0 000-1.25H8.333a.625.625 0 000 1.25h1.042v.44a8.08 8.08 0 00-3.954 1.389l-.812-.813a.625.625 0 00-.884.884l.716.716a8.125 8.125 0 1011.119 0l.715-.716a.625.625 0 10-.884-.884l-.812.813a8.08 8.08 0 00-3.954-1.389v-.44zM10 3.958a6.875 6.875 0 100 13.75 6.875 6.875 0 000-13.75z" fill="#1B8354"/></svg>