<svg width="21" height="21" fill="none" xmlns="http://www.w3.org/2000/svg"><path fill-rule="evenodd" clip-rule="evenodd" d="M10.193 0h.114c2.19 0 3.912 0 5.255.18 1.377.186 2.469.573 3.327 1.43.858.86 1.245 1.951 1.43 3.328.181 1.343.181 3.064.181 5.255v.114c0 2.19 0 3.912-.18 5.255-.186 1.377-.573 2.469-1.43 3.327-.86.858-1.951 1.245-3.328 1.43-1.343.181-3.064.181-5.255.181h-.114c-2.19 0-3.912 0-5.255-.18-1.377-.186-2.469-.573-3.327-1.43-.858-.86-1.245-1.951-1.43-3.328C0 14.219 0 12.498 0 10.307v-.114c0-2.19 0-3.912.18-5.255.186-1.377.573-2.469 1.43-3.327C2.47.753 3.562.366 4.939.18 6.281 0 8.002 0 10.193 0zm2.365 4.679a.926.926 0 00-.923-.929.926.926 0 00-.924.929v7.892a2.315 2.315 0 01-2.307 2.322 2.315 2.315 0 01-2.308-2.322 2.315 2.315 0 012.639-2.297.924.924 0 001.044-.788.928.928 0 00-.783-1.05 4.157 4.157 0 00-.592-.043c-2.294 0-4.154 1.87-4.154 4.178s1.86 4.179 4.154 4.179c2.294 0 4.154-1.87 4.154-4.179V7.95c.8.563 1.784.908 2.769.908.51 0 .923-.416.923-.928a.926.926 0 00-.923-.93c-.656 0-1.374-.274-1.924-.736-.549-.461-.845-1.032-.845-1.585z" fill="#1B8354"/></svg>