<svg width="18" height="17" fill="none" xmlns="http://www.w3.org/2000/svg"><path fill-rule="evenodd" clip-rule="evenodd" d="M8.993 4.057c-1.405 0-2.546 1.123-2.546 2.511 0 1.388 1.14 2.512 2.546 2.512s2.547-1.124 2.547-2.512-1.141-2.511-2.547-2.511zM7.621 6.568c0-.746.614-1.352 1.372-1.352.76 0 1.373.606 1.373 1.352 0 .746-.614 1.353-1.373 1.353a1.362 1.362 0 01-1.372-1.353z" fill="#fff"/><path d="M5.903 12.764c1.604-1.66 4.586-1.723 6.187-.008.22.236.591.25.83.034a.574.574 0 00.033-.82c-2.087-2.236-5.854-2.121-7.9-.007a.574.574 0 00.02.82.592.592 0 00.83-.02z" fill="#fff"/><path fill-rule="evenodd" clip-rule="evenodd" d="M9 .193C4.354.193.587 3.913.587 8.5c0 4.588 3.767 8.307 8.413 8.307 4.646 0 8.413-3.72 8.413-8.307C17.413 3.912 13.646.193 9 .193zM1.76 8.5c0-3.948 3.242-7.148 7.24-7.148s7.24 3.2 7.24 7.148c0 3.947-3.242 7.148-7.24 7.148s-7.24-3.2-7.24-7.148z" fill="#fff"/></svg>