<svg width="83" height="56" fill="none" xmlns="http://www.w3.org/2000/svg"><g clip-path="url(#clip0_49_855)"><g clip-path="url(#clip1_49_855)"><g clip-path="url(#clip2_49_855)"><path d="M27.823 16.735l1.027.975 1.026-1.027-1.077-1.022-.976 1.074z" fill="#28377B"/><path d="M31.302 16.735l1.026.975 1.026-1.027-1.078-1.02-.974 1.072z" fill="#9D9FA2"/><path d="M29.773 18.07l.839.793.746-.838-.796-.795-.789.84z" fill="#D1DA30"/><path d="M32.823 18.499l.838.793.746-.793-.793-.793-.791.793z" fill="#73BA44"/><path d="M28.427 19.317l.774-.81.81.775-.775.81-.809-.775z" fill="#D1DA30"/><path d="M31.2 19.433l.776-.81.808.776-.775.809-.809-.775z" fill="#27B7BD"/><path d="M30.126 20.38l.548-.572.573.549-.549.573-.572-.55z" fill="#73BA44"/><path d="M32.342 20.836l.56.56.56-.606-.606-.513-.514.559z" fill="#59B65E"/><path d="M37.157 16.41l1.79-.329.328 1.79-1.79.328-.328-1.79z" fill="#3189C9"/><path d="M36.219 16.87l-1.423.26.26 1.423 1.423-.26-.26-1.423z" fill="#213A71"/><path d="M37.608 19.178l1.423-.26.26 1.422-1.423.26-.26-1.422z" fill="#27B7BD"/><path d="M35.583 19.385l1.101-.202.203 1.101-1.102.203-.202-1.102z" fill="#D1DA30"/><path d="M37.773 21.529l1.102-.203.202 1.102-1.102.202-.202-1.101z" fill="#9D9FA2"/><path d="M33.87 19.862l1.102-.202.203 1.102-1.102.201-.202-1.101z" fill="#27B7BD"/><path d="M35.965 21.331l1.102-.201.202 1.101-1.102.202-.202-1.102z" fill="#73BA44"/><path d="M34.518 21.488l.78-.143.143.78-.78.143-.143-.78z" fill="#9D9FA2"/><path d="M36.037 23.107l.78-.142.143.78-.78.142-.143-.78z" fill="#59B65E"/><path d="M41.78 23.985l.78-1.644 1.645.78-.78 1.644-1.644-.78z" fill="#28377B"/><path d="M39.544 22.866l1.302.606.65-1.302-1.301-.606-.65 1.302z" fill="#27B7BD"/><path d="M40.639 26.15l1.302.651.65-1.302-1.301-.65-.651 1.302z" fill="#73BA44"/><path d="M39.015 24.871l1.026.466.513-.976-1.026-.514-.513 1.024zm.525 3.047l1.03.47.513-1.027-1.027-.466-.516 1.023z" fill="#D1DA30"/><path d="M37.395 24.252l1.026.467.467-.976-1.027-.517-.466 1.026z" fill="#3189C9"/><path d="M38.204 26.68l.977.466.51-1.022-1.026-.466-.46 1.022z" fill="#9D9FA2"/><path d="M37.07 25.622l.341-.716.716.34-.34.716-.717-.34z" fill="#73BA44"/><path d="M37.415 27.898l.341-.716.716.34-.34.717-.717-.341z" fill="#27B7BD"/><path d="M42.675 32.724l1.586-.838-.886-1.587-1.587.838.887 1.587z" fill="#3189C9"/><path d="M40.686 28.972l.7 1.302 1.258-.7-.7-1.254-1.258.652zm-1.047 3.336l.7 1.257 1.257-.7-.7-1.257-1.257.7z" fill="#27B7BD"/><path d="M39.11 30.306l.514.977 1.026-.513-.563-1.023-.976.56z" fill="#28377B"/><path d="M37.729 33.068l.56.977.977-.513-.513-.977-1.024.513z" fill="#59B65E"/><path d="M38.11 28.832l.56.976.977-.513-.513-.976-1.024.513z" fill="#213A71"/><path d="M37.347 31.259l.56.977.977-.514-.513-1.026-1.024.563z" fill="#D1DA30"/><path d="M37.068 29.795l.696-.38.38.695-.695.38-.38-.695z" fill="#9D9FA2"/><path d="M36.007 31.733l.696-.381.38.695-.695.381-.381-.695z" fill="#27B7BD"/><path d="M37.462 38.876l.224-1.807 1.807.224-.224 1.807-1.807-.224z" fill="#73BA44"/><path d="M37.83 36.064l.178-1.435 1.435.178-.178 1.434-1.435-.177z" fill="#213A71"/><path d="M35.253 36.687l-.178 1.435 1.435.178.178-1.435-1.435-.178z" fill="#27B7BD"/><path d="M35.835 35.897l.138-1.112 1.111.138-.137 1.111-1.112-.137z" fill="#73BA44"/><path d="M33.089 37.346l.137-1.112 1.112.138-.138 1.111-1.111-.137zm2.811-3.235l.137-1.112 1.112.138-.138 1.112-1.111-.138z" fill="#9D9FA2"/><path d="M33.871 35.644l.139-1.112 1.111.138-.138 1.112-1.111-.138z" fill="#73BA44"/><path d="M34.52 33.922l.097-.787.787.098-.097.787-.787-.098zm-2.007.982l.098-.787.787.097-.098.787-.787-.097z" fill="#9D9FA2"/><path d="M29.59 40.726l1.354 1.213 1.213-1.302-1.302-1.213-1.264 1.302zm-.238-25.806l1.353 1.213 1.213-1.302-1.302-1.213-1.264 1.301z" fill="#73BA44"/><path d="M31.588 38.68l1.026.977 1.026-1.026-1.075-1.026-.977 1.075z" fill="#27B7BD"/><path d="M28.11 38.729l1.024.977 1.026-1.027-1.073-.976-.978 1.026z" fill="#73BA44"/><path d="M30.06 37.346l.793.793.793-.838-.839-.746-.748.791z" fill="#3189C9"/><path d="M26.967 36.962l.76-.821.821.761-.76.82-.821-.76zm4.139-.997l.838.794.793-.839-.838-.793-.793.838z" fill="#D1DA30"/><path d="M28.583 36.013l.838.746.747-.793-.839-.793-.746.84z" fill="#9D9FA2"/><path d="M30.122 35.027l.54-.581.581.54-.54.58-.58-.539z" fill="#213A71"/><path d="M27.94 34.617l.539-.583.582.54-.54.582-.582-.54z" fill="#9D9FA2"/><path d="M23.916 37.303l-1.784.357.357 1.784 1.784-.357-.357-1.784z" fill="#3189C9"/><path d="M26.34 36.856l-1.416.283.283 1.418 1.417-.284-.283-1.417z" fill="#27B7BD"/><path d="M22.072 35.19l1.418-.284.285 1.418-1.418.284-.285-1.418z" fill="#73BA44"/><path d="M24.478 35.195l1.099-.22.22 1.099-1.1.22-.219-1.099z" fill="#D1DA30"/><path d="M26.196 34.715l1.098-.22.22 1.099-1.098.219-.22-1.098z" fill="#28377B"/><path d="M24.095 33.242l1.099-.22.219 1.099-1.098.219-.22-1.098z" fill="#3189C9"/><path d="M25.933 33.343l.778-.155.155.777-.778.156-.155-.778z" fill="#73BA44"/><path d="M24.363 31.728l.777-.155.155.777-.777.155-.155-.777z" fill="#9D9FA2"/><path d="M17.14 32.49l.754-1.656 1.656.754-.753 1.656-1.656-.754z" fill="#27B7BD"/><path d="M19.866 33.338l1.302.606.607-1.302-1.302-.606-.607 1.302z" fill="#D1DA30"/><path d="M18.724 30.101l1.302.606.606-1.353-1.352-.555-.556 1.302z" fill="#3189C9"/><path d="M20.772 31.206l.464-1.02 1.02.465-.465 1.02-1.02-.465z" fill="#27B7BD"/><path d="M20.175 28.164l.465-1.019 1.019.465-.465 1.02-1.02-.466z" fill="#28377B"/><path d="M21.578 29.41l.466-1.019 1.018.466-.465 1.018-1.019-.465z" fill="#D1DA30"/><path d="M16.867 23.692l.887 1.587 1.586-.887-.886-1.586-1.587.886z" fill="#27B7BD"/><path d="M22.143 33.705l1.027.466.466-1.026-1.026-.466-.467 1.026z" fill="#9D9FA2"/><path d="M22.358 31.705l.465-1.02 1.019.466-.465 1.019-1.019-.465z" fill="#59B65E"/><path d="M23.07 30.21l.33-.72.72.33-.329.72-.721-.33zm-3.538-7.419l.746 1.258 1.258-.746-.747-1.258-1.257.746z" fill="#213A71"/><path d="M21.816 22.091l.56.977.977-.56-.56-.93-.977.513zm.97 5.971l.33-.721.72.33-.33.72-.72-.329zm-3.487-.747l1.257-.746-.7-1.258-1.257.745.7 1.26z" fill="#73BA44"/><path d="M20.558 24.843l.56.977.977-.56-.56-.977-.977.56z" fill="#3189C9"/><path d="M22.514 25.729l-.977.513.56.977.977-.513-.56-.977z" fill="#27B7BD"/><path d="M22.236 23.864l.562.976.977-.56-.562-.976-.977.56z" fill="#D1DA30"/><path d="M22.98 25.47l.69-.392.392.689-.69.393-.392-.69z" fill="#9D9FA2"/><path d="M24.055 23.345l.69-.393.392.69-.69.392-.392-.69zm-2.442-5.077l.192-1.808 1.809.193-.193 1.808-1.808-.193z" fill="#73BA44"/><path d="M21.698 20.694l.154-1.438 1.438.154-.154 1.438-1.438-.154z" fill="#9D9FA2"/><path d="M24.558 17.195l-.154 1.438 1.439.154.153-1.438-1.438-.154z" fill="#27B7BD"/><path d="M24.04 20.573l.119-1.114 1.114.12-.12 1.113-1.113-.12z" fill="#D1DA30"/><path d="M26.756 19.081l.119-1.113 1.113.119-.119 1.113-1.113-.119z" fill="#3189C9"/><path d="M23.997 22.369l.12-1.114 1.113.119-.12 1.114-1.113-.12z" fill="#27B7BD"/><path d="M26.038 20.782l.12-1.113 1.113.12-.12 1.113-1.113-.12z" fill="#73BA44"/><path d="M25.72 22.243l.085-.789.788.084-.084.789-.788-.084z" fill="#213A71"/><path d="M27.744 21.212l.084-.788.788.084-.084.788-.788-.084z" fill="#9D9FA2"/><path d="M35.572 28.565a4.251 4.251 0 00-1.96-.14c-.29.034-.572.113-.838.233-.047 0-.047 0-.093.047-.152.07-.308.133-.466.187-.14.05-.267.13-.373.233a9.46 9.46 0 00-.839.606 19.295 19.295 0 01-.093-4.57c.7.419.513 1.627.326 1.959a2.197 2.197 0 00.28-2.38c.13.084.241.195.325.326.244.285.377.65.373 1.026v.56a1.966 1.966 0 00-.376-2.288l-.14-.14c.046 0 .093.047.14.047.128.053.253.115.373.187.25.194.444.451.56.746.086.206.133.427.14.65a1.78 1.78 0 00-.14-1.353 1.187 1.187 0 00-.56-.513 2.765 2.765 0 00-.373-.187c-.047 0-.14-.047-.187-.047h.187a.91.91 0 01.373.047c.2.04.39.12.56.234.148.097.275.224.373.372a1.267 1.267 0 00-.373-.746 1.064 1.064 0 00-.56-.28 1.16 1.16 0 00-.373-.047c-.16.004-.318.036-.466.093a.788.788 0 01.466-.325 1.16 1.16 0 01.373-.047.67.67 0 01.325.093 2.028 2.028 0 00-.325-.28c-.14-.047-.233-.093-.373-.14a.943.943 0 00-.934.466l-.14-.28a4.099 4.099 0 01-.233-.7c-.056.24-.134.475-.233.7l-.14.28a1.004 1.004 0 00-1.627-.093 1.07 1.07 0 011.213.326 1.483 1.483 0 00-1.54.373.886.886 0 00-.232.606c.06-.107.14-.201.233-.28a1.644 1.644 0 011.213-.326 1.594 1.594 0 00-1.214.983 1.809 1.809 0 000 1.12v-.047a1.56 1.56 0 011.213-1.586 2.073 2.073 0 00-.56 2.472 1.998 1.998 0 01.7-1.913 2.024 2.024 0 00.28 2.38c-.14-.326-.325-1.54.326-1.96a17.05 17.05 0 01-.094 4.571 8.125 8.125 0 00-1.676-1.026c-.093-.047-.14-.047-.187-.093a5.215 5.215 0 00-1.587-.233 4.463 4.463 0 00-1.627.419c-.093-.047-.14-.047-.187 0v.047c.047 0 .093-.047.14-.047a3.958 3.958 0 011.628-.14 4.43 4.43 0 011.593.425 7.58 7.58 0 011.913 1.258 18.18 18.18 0 01-1.913 1.631l-.047.047a.443.443 0 00-.467-.187.46.46 0 00-.325.325.336.336 0 00.093.373.627.627 0 00.793.094 9.98 9.98 0 002.096-1.774c.093-.047.14-.14.233-.187.093.047.14.14.233.187.373.373.747.7 1.074.977.14.14.28.233.373.325.175.14.362.266.56.373a.697.697 0 00.838 0 .045.045 0 00.047-.046.451.451 0 00.084-.368c0-.094-.047-.14-.14-.234a.354.354 0 00-.187-.093.443.443 0 00-.466.187c-.047-.047-.14-.047-.187-.093a8.868 8.868 0 01-.56-.419c-.14-.093-.233-.233-.373-.325-.28-.233-.56-.513-.839-.793.268-.232.548-.449.839-.65.113-.095.238-.174.373-.234l.56-.28a6.26 6.26 0 01.838-.325 4.549 4.549 0 011.96-.14c.238.04.472.103.7.187 0 0 .046 0 0-.047a1.194 1.194 0 00-.697-.376zm-.883 15.243h.513v.513h-.513v-.513zm3.242 5.271h.513v.513h-.513v-.513zM.98 45.44c-.19.145-.335.339-.42.561a1.87 1.87 0 00-.14.698c-.017.276.048.552.186.793.102.225.263.418.466.56.215.144.452.253.701.323.276.057.557.088.839.093h3.405v-3.494h-.513v2.982H3.359v-2.982H2.52c-.3-.003-.6.044-.886.14-.24.06-.462.172-.655.327zm1.352.048h.513v2.468h-.513a2.344 2.344 0 01-.559-.09 1.46 1.46 0 01-.466-.233.726.726 0 01-.28-.373.922.922 0 01-.092-.513.94.94 0 01.14-.513 1.26 1.26 0 01.323-.374 1.46 1.46 0 01.468-.236c.093-.137.28-.136.466-.136zm38.458 3.591h.513v.513h-.513v-.513zm-1.954 0h.514v.513h-.514v-.513zm12.965-5.271h.513v4.664h-.513v-4.664zm4.284 1.627a1.279 1.279 0 00-.419.56c-.091.222-.139.46-.14.7-.016.277.049.553.187.793.102.226.263.419.466.56.215.145.451.255.7.326.276.056.557.087.839.093h10.215c.17.18.377.323.606.419.237.095.491.143.747.14.27-.001.538-.049.793-.14.235-.084.444-.229.606-.42h2.284c.17.181.377.324.606.42.237.095.49.143.746.14.27-.001.539-.049.793-.14a1.42 1.42 0 00.606-.42h2.66v-4.658h-.513v4.15h-1.77a2.11 2.11 0 00.14-.746 1.934 1.934 0 00-.14-.746 1.775 1.775 0 00-.42-.606 2.805 2.805 0 00-.606-.42 2.061 2.061 0 00-1.493 0 1.775 1.775 0 00-.979 1.026c-.096.237-.143.49-.14.746-.008.142.008.283.047.42.047.14.047.233.093.373h-1.588a2.12 2.12 0 00.14-.747 1.934 1.934 0 00-.14-.746 1.775 1.775 0 00-.42-.606 2.808 2.808 0 00-.605-.419 2.062 2.062 0 00-1.494-.003 1.776 1.776 0 00-.98 1.026c-.095.237-.143.49-.14.746a1.29 1.29 0 00.047.42c.047.14.047.232.094.372h-1.629v-4.147h-.513v4.151h-1.624v-.793a2.343 2.343 0 00-.094-.56 1.458 1.458 0 00-.233-.466 1.067 1.067 0 00-.466-.325 1.384 1.384 0 00-.65-.093h-2.29l.977-1.867h-.514l-.976 1.866c.01.1.041.195.093.28.047.093.093.14.14.233h2.66a.933.933 0 01.419.093c.106.04.202.103.28.187a.403.403 0 01.14.28.91.91 0 01.047.373v.793h-4.805v-2.988h-.838a2.75 2.75 0 00-.886.14.87.87 0 00-.666.23zm17.025 1.213a1.286 1.286 0 01.7-.7.922.922 0 01.513-.093c.19.008.378.04.56.093.163.054.308.15.42.28.124.116.22.26.28.42.057.18.088.37.093.56-.008.19-.04.377-.093.56a1.624 1.624 0 01-.28.419 1.1 1.1 0 01-.42.28 2.04 2.04 0 01-.56.093 1.678 1.678 0 01-.513-.093l-.419-.28a1.102 1.102 0 01-.28-.42 1.978 1.978 0 01-.093-.513.89.89 0 01.093-.6v-.006zm-5.037 0a1.289 1.289 0 01.7-.7.922.922 0 01.513-.093c.19.008.377.04.56.093.162.054.307.15.419.28.124.116.22.26.28.42.057.18.089.37.093.56-.008.19-.04.377-.093.56a1.627 1.627 0 01-.28.419 1.1 1.1 0 01-.42.28 2.04 2.04 0 01-.56.093 1.677 1.677 0 01-.512-.093l-.42-.28a1.1 1.1 0 01-.28-.42 1.982 1.982 0 01-.093-.513.89.89 0 01.093-.6v-.006zM57.44 45.484h.513v2.47h-.513a2.343 2.343 0 01-.56-.093 1.46 1.46 0 01-.466-.233.727.727 0 01-.28-.373.922.922 0 01-.093-.513.94.94 0 01.14-.513c.083-.145.193-.271.325-.373a1.46 1.46 0 01.466-.233c.093-.134.28-.134.466-.134l.002-.005zm22.434-1.676h.514v4.664h-.514v-4.664zm-22.449 0h.513v.513h-.513v-.513zm-.905 0h.513v.513h-.513v-.513zm-13.508 1.166v4.014a.356.356 0 01-.093.233l-.14.141a.35.35 0 01-.234.047h-.14a.168.168 0 01-.14-.047l-.14.513c.137.039.278.054.42.047.16-.004.317-.035.466-.093a.627.627 0 00.325-.28.88.88 0 00.187-.42c.043-.183.059-.371.047-.56v-.096h6.67v-4.665h-.513v4.15h-2.19l.881-2.144a2.554 2.554 0 00-.419-.325c-.14-.093-.325-.187-.466-.28a2.276 2.276 0 00-.513-.187 2.845 2.845 0 00-1.026 0c-.178.041-.35.104-.513.187a4.104 4.104 0 00-.468.275c-.14.094-.28.234-.42.326l.934 2.146h-1.91v-2.982h-.605zm2.146.977c.18-.158.384-.284.606-.373.207-.08.43-.112.651-.094.24.002.478.05.7.14.216.08.42.19.607.326l-.794 2.005h-.933l-.837-2.004zM2.796 43.808h.513v.513h-.513v-.513zm2.708 5.271h.513v.513h-.513v-.513zm-3.591-5.271h.513v.513h-.513v-.513zm2.657 5.271h.516v.513h-.515v-.513zm2.099-1.119v.512H9.61V46.42a2.342 2.342 0 00-.091-.562 1.459 1.459 0 00-.233-.466 1.066 1.066 0 00-.469-.323 1.28 1.28 0 00-.607-.094h-.373v.513h.466c.13.008.258.04.378.094.104.063.198.142.28.233a.403.403 0 01.14.28.91.91 0 01.047.373v1.493l-2.48-.002zM33.8 45.44a1.287 1.287 0 00-.419.561 1.87 1.87 0 00-.14.7c-.016.277.049.553.187.793.102.225.263.419.466.56.215.145.451.255.7.325.276.057.557.088.839.093h5.877v-3.498h-.513v2.982h-1.96v-2.982h-.513v2.982h-2.051v-2.982h-.839c-.3-.003-.6.044-.886.14a1.58 1.58 0 00-.748.327zm1.353.048h.514v2.468h-.514a2.343 2.343 0 01-.56-.093 1.458 1.458 0 01-.466-.233.726.726 0 01-.28-.373.923.923 0 01-.093-.513.94.94 0 01.14-.513c.083-.145.193-.272.325-.373a1.46 1.46 0 01.467-.233c.093-.138.28-.138.467-.138zm-5.183-1.68h.512v4.664h-.511v-4.664zm5.625 0h.513v.513h-.513v-.513zm-23 1.166c-.301-.003-.6.044-.886.14a2.473 2.473 0 00-.7.373c-.19.144-.335.338-.42.56a1.87 1.87 0 00-.14.7c-.016.277.05.553.188.793.102.226.263.419.466.56.214.145.45.255.7.325.276.057.556.088.838.094h.325v.14a.636.636 0 01-.233.56c-.194.123-.42.188-.65.187a1.16 1.16 0 01-.42-.047l-.419-.141-.142.514c.166.075.337.138.513.187.152.038.308.053.464.046a1.536 1.536 0 001.12-.373 1.313 1.313 0 00.322-.977v-.093h7.93a1.49 1.49 0 00.651-.14 1.01 1.01 0 00.466-.42c.124.202.302.363.513.467a2.013 2.013 0 001.59.046 1.09 1.09 0 00.514-.513c.047.093.093.14.14.233a.466.466 0 00.233.187c.121.054.246.101.373.14a.91.91 0 00.373.047h1.493V43.9h-.51v4.151h-.838a1.31 1.31 0 01-.7-.136 1.102 1.102 0 01-.42-.373 1.44 1.44 0 00.047-.466v-1.683h-.513v1.773a1.14 1.14 0 01-.233.7.922.922 0 01-.746.28 1.364 1.364 0 01-.42-.093.754.754 0 01-.325-.187c-.093-.093-.14-.187-.233-.28 0-.233-.047-.325-.047-.466V45.3h-.513v1.772a1.36 1.36 0 01-.093.42.976.976 0 01-.187.28.402.402 0 01-.28.14.795.795 0 01-.325.046h-1.03V45.3h-.514v2.658H17.21l.886-2.147a2.564 2.564 0 00-.419-.325c-.14-.093-.325-.187-.466-.28a2.274 2.274 0 00-.512-.189 2.845 2.845 0 00-1.026 0 2.28 2.28 0 00-.513.187 4.103 4.103 0 00-.466.28c-.14.093-.28.233-.42.326l.933 2.146h-1.819v-2.983h-.793zm.28 2.985h-.513a2.345 2.345 0 01-.56-.09 1.461 1.461 0 01-.466-.233 1.259 1.259 0 01-.33-.377.922.922 0 01-.093-.513.94.94 0 01.14-.513 2.57 2.57 0 01.325-.419 1.46 1.46 0 01.467-.235c.166-.053.338-.084.513-.093h.513l.004 2.473zm2.052-2.007c.18-.157.385-.283.607-.373.207-.08.429-.11.65-.093.24.002.478.049.7.14.216.08.42.19.606.326l-.793 2.006h-.932l-.838-2.006zM4.104 51.878h-.792l-1.776 1.866v-1.866h-.65v3.689h.65V54.49l.606-.56L3.4 55.556h.793L2.565 53.46l1.539-1.583zm.654 0h.65v3.685h-.65v-3.685zm4.246 2.566l-1.96-2.566h-.607v3.689h.65v-2.613l2.007 2.612h.56v-3.689h-.65v2.566zm3.357-.374h.933v.7c-.256.19-.568.288-.886.28a1.24 1.24 0 01-1.258-1.301 1.258 1.258 0 011.214-1.303 1.302 1.302 0 011.026.42l.419-.514a2.02 2.02 0 00-1.446-.512 1.89 1.89 0 00-1.915 1.913 1.84 1.84 0 001.913 1.913 2.546 2.546 0 001.54-.56v-1.54h-1.587v.513l.047-.009zm4.195-2.193h-1.4v3.69h1.4a1.844 1.844 0 100-3.69zm1.257 1.866a1.213 1.213 0 01-1.302 1.258h-.743v-2.515h.746a1.212 1.212 0 011.302 1.257h-.003zm3.357-1.912a1.928 1.928 0 00-1.82 2.648 1.89 1.89 0 001.773 1.178 1.929 1.929 0 001.96-1.914 1.863 1.863 0 00-1.914-1.912zm1.212 1.912a1.257 1.257 0 11-2.515 0 1.264 1.264 0 011.258-1.302 1.24 1.24 0 011.257 1.302zm3.459-.092l-1.166-1.773h-.7v3.689h.65v-2.613l1.167 1.726h.047l1.166-1.726v2.612h.65v-3.689h-.7l-1.113 1.774zm6.244-1.82a1.928 1.928 0 00-1.82 2.648 1.892 1.892 0 001.774 1.178 1.927 1.927 0 001.96-1.914 1.81 1.81 0 00-1.914-1.912zm1.258 1.913a1.258 1.258 0 11-2.516 0 1.266 1.266 0 012.17-.924 1.237 1.237 0 01.346.924zm1.586 1.823h.65V54.07h1.865v-.606H35.58v-.973h2.096v-.613H34.93v3.689zm6.589-2.15c-.7-.187-.886-.28-.886-.56 0-.233.233-.419.606-.419.37.026.726.155 1.027.373l.325-.513a2.155 2.155 0 00-1.353-.466 1.112 1.112 0 00-1.258 1.073c0 .7.466.933 1.213 1.12.7.14.839.28.839.56s-.233.466-.65.466a1.845 1.845 0 01-1.167-.466l-.373.466c.416.393.967.61 1.54.606.792 0 1.301-.419 1.301-1.12.05-.657-.37-.934-1.164-1.12zm3.296-1.54l-1.627 3.731h.65l.373-.886h1.776l.373.886h.7l-1.627-3.73h-.618zm-.37 2.24l.648-1.494.65 1.494h-1.298zm5.59-.094c0 .7-.373 1.027-.933 1.027s-.933-.373-.933-1.073V51.88h-.651v2.146a1.593 1.593 0 103.172-.052v-2.096h-.65l-.005 2.144zm3.078-2.146h-1.4v3.69h1.4a1.845 1.845 0 000-3.69zm1.257 1.866a1.213 1.213 0 01-1.302 1.258h-.743v-2.515h.746a1.193 1.193 0 011.302 1.257h-.003zm1.588-1.865h.653v3.685h-.653v-3.685zm4.635-.001l-1.628 3.731h.65l.374-.886h1.773l.373.886h.7l-1.627-3.73h-.615zm-.326 2.24l.651-1.494.65 1.494h-1.3zm6.294-1.074a.963.963 0 00-.326-.793 1.492 1.492 0 00-1.073-.374h-1.63v3.69h.653v-1.303h.793l.933 1.302h.747l-.976-1.399a1.112 1.112 0 00.878-1.123zm-1.4.65h-.933v-1.257h.933c.466 0 .746.233.746.606 0 .42-.28.651-.746.651zm3.98-1.816l-1.627 3.731h.651l.373-.886h1.773l.373.886h.7l-1.627-3.73h-.615zm-.325 2.24l.651-1.494.65 1.494h-1.3zm5.508-.467a.86.86 0 00.514-.839.886.886 0 00-.233-.606 1.314 1.314 0 00-.977-.327h-1.683v3.689h1.726c.839 0 1.354-.373 1.354-1.026.045-.472-.234-.751-.7-.891zm-1.676-1.214h.93c.42 0 .651.187.651.467 0 .325-.28.513-.7.513h-.886l.005-.98zm1.77 2.052c0 .325-.28.513-.7.513h-1.073v-1.024h1.026c.513 0 .747.187.747.51zm1.493-2.61h.653v3.685h-.653v-3.685zm2.886-.001l-1.628 3.731h.65l.374-.886h1.773l.373.886h.7l-1.627-3.73h-.615zm-.37 2.24l.647-1.494.65 1.494h-1.297zm-19.28-22.073c0 4.13-2.905 7.053-7.713 7.053a10.363 10.363 0 01-8.286-3.694l3.238-3.118a6.48 6.48 0 005.141 2.59 2.612 2.612 0 001.954-.53 2.652 2.652 0 00.999-1.773v-.38c0-1.727-1.527-2.732-4.192-2.732h-1.954l-.762-2.926 6.857-6.909-2.714 1.724h-7.285v-4.033h14.385v3.55l-5.38 5.18c2.905.48 5.714 2.013 5.714 5.998h-.002zM45.81 7.578a3.463 3.463 0 013.147-3.55h2.282l-.62.239v5.282c-.015.323.017.646.096.96a.523.523 0 00.19.432h-1.81a3.347 3.347 0 01-3.285-3.354v-.01zm3.333 4.463h1.952v-.67l.096.095c.184.201.392.379.62.528a5.5 5.5 0 00.857.192h17V3.165h-.952v7.915H52.572a.704.704 0 01-.429-.096l-.238-.24c-.095-.192-.095-.24-.19-.431V3.165h-2.571a4.41 4.41 0 00-4.38 4.22v.193a4.316 4.316 0 004.191 4.413c.096-.048.096-.048.19.048l-.001.002zm27.19-9.836h-1.955v-.768c.006-.304.088-.6.238-.864.262-.152.558-.234.86-.24h.663v.624h-.663c-.142 0-.335.096-.335.24v.335h1.19l.002.673zm2.381 9.931a2.08 2.08 0 01-.762-.095l.238-.864.238.096h.238c.15.014.3-.02.429-.096l.238-.24c.096-.192.096-.24.19-.431V3.164h.953v6.523c.015.323-.017.646-.096.96l-.238.768a3.288 3.288 0 01-.62.528 4.003 4.003 0 01-.81.192h.002zm-27-9.931h-.952v-.912h.952v.912zm20.525 3.31c.14-.277.354-.51.62-.671.225-.19.483-.336.761-.432.311-.091.63-.156.953-.192h1.52l-.524.24v4.22h-1.048a4.025 4.025 0 01-1.048-.192 2.41 2.41 0 01-.762-.432 1.44 1.44 0 01-.524-.67 2.163 2.163 0 01-.192-.962c-.018-.321.065-.64.238-.911h.005zm-.006 3.26c.358.253.763.432 1.19.529.489.09.981.155 1.477.192h.238l.335-.624v.96a1.184 1.184 0 01-.428 1.056 1.74 1.74 0 01-1.19.335 2.08 2.08 0 01-.763-.096l-.762-.24-.238.864c.335.096.62.24.952.336.283.055.57.087.858.095a2.457 2.457 0 001.953-.67c.412-.48.632-1.096.619-1.728V3.16h-1.522a5.33 5.33 0 00-1.524.24c-.428.192-.858.432-1.286.67a2.41 2.41 0 00-.762 1.056c-.17.41-.252.853-.238 1.297a2.86 2.86 0 00.335 1.392 1.2 1.2 0 00.762.96h-.006zm-22.376-6.57h-.952v-.912h.952v.912zm-9.666.96h.953v8.773h-.762l-6.288-7.912.524 1.296v6.615h-.948V3.165h.953l5.905 7.58-.336-1.056V3.165zM3.766 12.039L0 3.165h1.096l.524 1.297 2.57 6.282.24.623-.095-.96 2.998-7.242h1.048L4.62 12.039h-.853zm16.663-8.874h1.047v8.773h-1.048V3.165zm10.619 4.413a3.425 3.425 0 01-3.238 3.597h-.19a3.542 3.542 0 01-3.438-3.55V7.53a3.425 3.425 0 013.238-3.597h.19a3.542 3.542 0 013.438 3.55v.096zm-3.434-4.562a4.539 4.539 0 00-4.527 4.413v.198a4.549 4.549 0 002.064 4.035 4.476 4.476 0 004.5.216 4.542 4.542 0 002.436-3.818v-.433a4.392 4.392 0 00-1.168-3.173 4.329 4.329 0 00-3.066-1.383h-.238l-.001-.055zM18.81 9.64c0 1.536-1.286 2.495-3 2.495a4.741 4.741 0 01-3.571-1.391l.62-.768a3.864 3.864 0 002.999 1.2c1.19 0 1.952-.623 1.952-1.487 0-.768-.428-1.295-2.286-1.631-2.049-.43-2.906-1.1-2.906-2.592a2.613 2.613 0 012.763-2.449h.142a4.796 4.796 0 013.095 1.11l-.62.767a3.886 3.886 0 00-2.571-.955c-1.096 0-1.858.624-1.858 1.488 0 .863.428 1.295 2.381 1.727 1.953.432 2.858 1.103 2.858 2.495l.002-.009zm-8.143 2.3h-.954V3.164h1.048l-.094 8.773zm57.522 1.054h.952v.96h-.952v-.96zm-1.76 0h.952v.96h-.954l.001-.96zM7.856 34.682H16v4.03H.19v-3.694l7.095-5.853c2.667-2.159 3.667-3.353 3.667-5.18a2.509 2.509 0 00-1.34-2.469 2.472 2.472 0 00-.947-.267h-.57c-1.619 0-2.714.96-4.38 2.832L.476 21.49c2.19-2.831 4.143-4.365 8-4.365 4.38 0 7.333 2.59 7.333 6.623v.095c0 3.598-1.81 5.325-5.57 8.253l-4.811 3.546-.953.67 3.382-1.63zm70.19-6.623a6.32 6.32 0 01-1.608 4.559 6.226 6.226 0 01-4.345 2.061h-.38a6.487 6.487 0 01-6.425-6.472v-.288a6.32 6.32 0 011.608-4.559 6.228 6.228 0 014.345-2.061h.38a6.487 6.487 0 016.425 6.472v.288zm-6.333-11.126a11.075 11.075 0 00-11.381 10.698v.432a10.936 10.936 0 0010.809 11.033h.476A11.075 11.075 0 0083 28.397v-.431a10.936 10.936 0 00-10.81-11.033h-.476z" fill="#005B4E"/></g></g></g><defs><clipPath id="clip0_49_855"><path fill="#fff" d="M0 0h83v56H0z"/></clipPath><clipPath id="clip1_49_855"><path fill="#fff" d="M0 0h83v56H0z"/></clipPath><clipPath id="clip2_49_855"><path fill="#fff" transform="translate(0 .333)" d="M0 0h83v55.333H0z"/></clipPath></defs></svg>