<svg width="24" height="20" fill="none" xmlns="http://www.w3.org/2000/svg"><path fill-rule="evenodd" clip-rule="evenodd" d="M6.579.55a28.03 28.03 0 015.59-.55c1.959 0 3.841.193 5.59.55l.134.027c1.997.407 3.328.678 4.474 2.152 1.134 1.458 1.134 3.15 1.133 5.77v2.503c0 2.62.002 4.31-1.133 5.77-1.146 1.473-2.477 1.744-4.474 2.15l-.134.028c-1.749.357-3.631.55-5.59.55-1.96 0-3.841-.194-5.59-.55l-.134-.027c-1.997-.407-3.328-.678-4.475-2.152-1.134-1.458-1.133-3.15-1.132-5.77V8.499c-.001-2.62-.002-4.31 1.132-5.77C3.117 1.256 4.448.985 6.445.579L6.579.55zm4.846 5.25c.547.229 1.21.6 2.022 1.053.107.06.215.12.322.178.53.293 1.064.588 1.557.942.442.318.861.712 1 1.287.078.322.078.658 0 .98-.139.575-.558.97-1 1.287-.493.354-1.026.649-1.557.942l-.322.178c-.811.453-1.475.824-2.022 1.053-.888.373-1.83.403-2.605-.231-.485-.397-.656-.966-.731-1.539a17.506 17.506 0 010-4.36c.075-.573.246-1.142.73-1.539.775-.634 1.718-.604 2.606-.231z" fill="#1B8354"/></svg>